<svg width="32" height="32" viewBox="0 0 32 32" fill="none" xmlns="http://www.w3.org/2000/svg">
<rect width="32" height="32" fill="#040404"/>
<path d="M12.418 25.798C10.384 25.798 8.674 24.88 7.954 23.224L9.502 22.468C9.97 23.512 10.996 24.07 12.418 24.07C13.822 24.07 14.902 23.404 14.902 22.216C14.902 20.884 13.678 20.65 12.256 20.38C10.438 20.02 8.188 19.426 8.188 16.87C8.188 14.872 10.006 13.36 12.292 13.36C14.128 13.36 15.766 14.224 16.486 15.88L14.956 16.672C14.47 15.682 13.552 15.07 12.22 15.07C10.996 15.07 10.006 15.79 10.006 16.816C10.006 18.112 11.284 18.4 12.742 18.688C14.542 19.048 16.738 19.642 16.738 22.198C16.738 24.322 14.848 25.798 12.418 25.798Z" fill="#F5F5F5"/>
<path d="M19.398 19.198C17.364 19.198 15.654 18.28 14.934 16.624L16.482 15.868C16.95 16.912 17.976 17.47 19.398 17.47C20.802 17.47 21.882 16.804 21.882 15.616C21.882 14.284 20.658 14.05 19.236 13.78C17.418 13.42 15.168 12.826 15.168 10.27C15.168 8.272 16.986 6.76 19.272 6.76C21.108 6.76 22.746 7.624 23.466 9.28L21.936 10.072C21.45 9.082 20.532 8.47 19.2 8.47C17.976 8.47 16.986 9.19 16.986 10.216C16.986 11.512 18.264 11.8 19.722 12.088C21.522 12.448 23.718 13.042 23.718 15.598C23.718 17.722 21.828 19.198 19.398 19.198Z" fill="#F5F5F5"/>
<path d="M12.918 26.298C10.884 26.298 9.174 25.38 8.454 23.724L10.002 22.968C10.47 24.012 11.496 24.57 12.918 24.57C14.322 24.57 15.402 23.904 15.402 22.716C15.402 21.384 14.178 21.15 12.756 20.88C10.938 20.52 8.688 19.926 8.688 17.37C8.688 15.372 10.506 13.86 12.792 13.86C14.628 13.86 16.266 14.724 16.986 16.38L15.456 17.172C14.97 16.182 14.052 15.57 12.72 15.57C11.496 15.57 10.506 16.29 10.506 17.316C10.506 18.612 11.784 18.9 13.242 19.188C15.042 19.548 17.238 20.142 17.238 22.698C17.238 24.822 15.348 26.298 12.918 26.298Z" fill="#F5F5F5" fill-opacity="0.6"/>
<path d="M19.898 19.698C17.864 19.698 16.154 18.78 15.434 17.124L16.982 16.368C17.45 17.412 18.476 17.97 19.898 17.97C21.302 17.97 22.382 17.304 22.382 16.116C22.382 14.784 21.158 14.55 19.736 14.28C17.918 13.92 15.668 13.326 15.668 10.77C15.668 8.772 17.486 7.26 19.772 7.26C21.608 7.26 23.246 8.124 23.966 9.78L22.436 10.572C21.95 9.582 21.032 8.97 19.7 8.97C18.476 8.97 17.486 9.69 17.486 10.716C17.486 12.012 18.764 12.3 20.222 12.588C22.022 12.948 24.218 13.542 24.218 16.098C24.218 18.222 22.328 19.698 19.898 19.698Z" fill="#F5F5F5" fill-opacity="0.6"/>
</svg>
