<?xml version="1.0" encoding="utf-8"?>
<!-- Generator: Adobe Illustrator 28.1.0, SVG Export Plug-In . SVG Version: 6.00 Build 0)  -->
<svg version="1.1" id="Layer_1" xmlns="http://www.w3.org/2000/svg" xmlns:xlink="http://www.w3.org/1999/xlink" x="0px" y="0px"
	 viewBox="0 0 32 32" style="enable-background:new 0 0 32 32;" xml:space="preserve">
<style type="text/css">
	.st0{fill:#0C0C0C;}
	.st1{fill:#F5F5F5;}
	.st2{fill:#F5F5F5;fill-opacity:0.6;}
</style>
<rect y="0" class="st0" width="32" height="32"/>
<path class="st1" d="M12.4,25.8c-2,0-3.7-0.9-4.5-2.6l1.5-0.8c0.5,1,1.5,1.6,2.9,1.6c1.4,0,2.5-0.7,2.5-1.9c0-1.3-1.2-1.6-2.6-1.8
	c-1.8-0.4-4.1-1-4.1-3.5c0-2,1.8-3.5,4.1-3.5c1.8,0,3.5,0.9,4.2,2.5L15,16.7c-0.5-1-1.4-1.6-2.7-1.6c-1.2,0-2.2,0.7-2.2,1.7
	c0,1.3,1.3,1.6,2.7,1.9c1.8,0.4,4,1,4,3.5C16.7,24.3,14.8,25.8,12.4,25.8z"/>
<path class="st1" d="M19.4,19.2c-2,0-3.7-0.9-4.5-2.6l1.5-0.8c0.5,1,1.5,1.6,2.9,1.6c1.4,0,2.5-0.7,2.5-1.9c0-1.3-1.2-1.6-2.6-1.8
	c-1.8-0.4-4.1-1-4.1-3.5c0-2,1.8-3.5,4.1-3.5c1.8,0,3.5,0.9,4.2,2.5l-1.5,0.8c-0.5-1-1.4-1.6-2.7-1.6C18,8.5,17,9.2,17,10.2
	c0,1.3,1.3,1.6,2.7,1.9c1.8,0.4,4,1,4,3.5C23.7,17.7,21.8,19.2,19.4,19.2z"/>
<path class="st2" d="M12.9,26.3c-2,0-3.7-0.9-4.5-2.6L10,23c0.5,1,1.5,1.6,2.9,1.6c1.4,0,2.5-0.7,2.5-1.9c0-1.3-1.2-1.6-2.6-1.8
	c-1.8-0.4-4.1-1-4.1-3.5c0-2,1.8-3.5,4.1-3.5c1.8,0,3.5,0.9,4.2,2.5l-1.5,0.8c-0.5-1-1.4-1.6-2.7-1.6c-1.2,0-2.2,0.7-2.2,1.7
	c0,1.3,1.3,1.6,2.7,1.9c1.8,0.4,4,1,4,3.5C17.2,24.8,15.3,26.3,12.9,26.3z"/>
<path class="st2" d="M19.9,19.7c-2,0-3.7-0.9-4.5-2.6l1.5-0.8c0.5,1,1.5,1.6,2.9,1.6c1.4,0,2.5-0.7,2.5-1.9c0-1.3-1.2-1.6-2.6-1.8
	c-1.8-0.4-4.1-1-4.1-3.5c0-2,1.8-3.5,4.1-3.5c1.8,0,3.5,0.9,4.2,2.5l-1.5,0.8C22,9.6,21,9,19.7,9c-1.2,0-2.2,0.7-2.2,1.7
	c0,1.3,1.3,1.6,2.7,1.9c1.8,0.4,4,1,4,3.5C24.2,18.2,22.3,19.7,19.9,19.7z"/>
</svg>
