<svg width="10" height="13" viewBox="0 0 10 13" fill="none" xmlns="http://www.w3.org/2000/svg">
<path d="M4.976 12.256C2.928 12.256 1.328 11.408 0.592 9.808L3.056 8.576C3.36 9.232 3.968 9.536 4.976 9.536C5.76 9.536 6.352 9.296 6.352 8.784C6.352 8.144 5.712 8.048 4.736 7.904C3.12 7.664 0.752 7.04 0.752 4.464C0.752 2.48 2.528 0.959999 4.928 0.959999C6.816 0.959999 8.416 1.808 9.152 3.408L6.688 4.64C6.384 4.112 5.808 3.68 4.8 3.68C4.096 3.68 3.712 3.904 3.712 4.352C3.712 4.96 4.416 5.152 5.472 5.312C7.072 5.552 9.312 6.16 9.312 8.752C9.312 10.736 7.376 12.256 4.976 12.256Z" fill="white"/>
</svg>
