<?xml version="1.0" encoding="utf-8"?>
<!-- Generator: Adobe Illustrator 28.1.0, SVG Export Plug-In . SVG Version: 6.00 Build 0)  -->
<svg version="1.1" id="Layer_1" xmlns="http://www.w3.org/2000/svg" xmlns:xlink="http://www.w3.org/1999/xlink" x="0px" y="0px"
	 viewBox="0 0 32 32" style="enable-background:new 0 0 32 32;" xml:space="preserve">
<style type="text/css">
	.st0{fill:#F5F5F5;}
</style>
<path class="st0" d="M23.8,15.6c0.1,2.1-1.7,3.7-4.1,3.9c-2,0.1-3.7-0.6-4.7-2.3l0,0c-0.5-1-1.4-1.5-2.7-1.5c-1.2,0-2.2,0.7-2.2,1.7
	c0,1.3,1.3,1.6,2.7,1.9c1.8,0.4,4,1,4,3.5c-0.1,2.1-2,3.6-4.4,3.6c-2,0-3.7-0.9-4.5-2.6L9.4,23c0.5,1,1.5,1.6,2.9,1.6
	s2.5-0.7,2.5-1.9c0-1.3-1.2-1.6-2.6-1.8c-1.8-0.4-4.1-1-4.1-3.5c0-2,1.8-3.5,4.1-3.5c1.8,0,3.4,0.9,4.1,2.4l0,0l0.1,0.1
	c0.6,1,1.6,1.5,3,1.4s2.4-0.9,2.4-2.1c-0.1-1.3-1.3-1.5-2.7-1.6c-1.8-0.3-4.2-0.7-4.3-3.2c-0.1-2,1.6-3.6,3.9-3.8
	c1.8-0.1,3.6,0.7,4.4,2.2l-1.4,0.9c-0.6-1-1.5-1.5-2.8-1.4c-1.2,0.2-2.1,0.9-2.1,1.9c0.1,1.3,1.4,1.5,2.8,1.7
	C21.4,12.7,23.6,13.1,23.8,15.6z"/>
<path d="M23.7,15.1c0.1,2.1-1.7,3.7-4.1,3.9c-2,0.1-3.7-0.6-4.7-2.3l0,0c-0.5-1-1.4-1.5-2.7-1.5c-1.2,0-2.2,0.7-2.2,1.7
	c0,1.3,1.3,1.6,2.7,1.9c1.8,0.4,4,1,4,3.5c-0.1,2.1-2,3.6-4.4,3.6c-2,0-3.7-0.9-4.5-2.6l1.5-0.8c0.5,1,1.5,1.6,2.9,1.6
	s2.5-0.7,2.5-1.9c0-1.3-1.2-1.6-2.6-1.8C10.3,20,8,19.4,8,16.9c0-2,1.8-3.5,4.1-3.5c1.6,0,3.1,0.7,3.9,1.9l0.1,0.2l0.2,0.3
	c0.6,1,1.6,1.5,3,1.4s2.4-0.9,2.4-2.1c-0.1-1.3-1.3-1.5-2.7-1.6c-1.8-0.3-4.2-0.7-4.3-3.2c-0.1-2,1.6-3.6,3.9-3.8
	c1.8-0.1,3.6,0.7,4.4,2.2l-1.4,0.9c-0.6-1-1.5-1.5-2.8-1.4c-1.2,0.2-2.1,0.9-2.1,1.9c0.1,1.3,1.4,1.5,2.8,1.7
	C21.3,12.2,23.5,12.6,23.7,15.1z"/>
</svg>
