<svg width="106" height="14" viewBox="0 0 106 14" fill="none" xmlns="http://www.w3.org/2000/svg">
<path d="M4.976 13.256C2.928 13.256 1.328 12.408 0.592 10.808L3.056 9.576C3.36 10.232 3.968 10.536 4.976 10.536C5.76 10.536 6.352 10.296 6.352 9.784C6.352 9.144 5.712 9.048 4.736 8.904C3.12 8.664 0.752 8.04 0.752 5.464C0.752 3.48 2.528 1.96 4.928 1.96C6.816 1.96 8.416 2.808 9.152 4.408L6.688 5.64C6.384 5.112 5.808 4.68 4.8 4.68C4.096 4.68 3.712 4.904 3.712 5.352C3.712 5.96 4.416 6.152 5.472 6.312C7.072 6.552 9.312 7.16 9.312 9.752C9.312 11.736 7.376 13.256 4.976 13.256ZM14.4574 10.44C15.3854 10.44 15.7854 9.592 15.7854 8.584V5H18.6654V8.936C18.6654 11.288 17.2894 13.24 14.4574 13.24C11.6254 13.24 10.2494 11.288 10.2494 8.936V5H13.1294V8.584C13.1294 9.592 13.5294 10.44 14.4574 10.44ZM23.4565 13.256C21.6485 13.256 20.4805 12.632 19.7925 11.416L21.8725 10.248C22.1605 10.76 22.5925 11.016 23.3125 11.016C23.9045 11.016 24.1765 10.808 24.1765 10.552C24.1765 9.576 19.9525 10.568 19.9525 7.464C19.9525 5.96 21.2325 4.744 23.4085 4.744C25.3125 4.744 26.3525 5.672 26.8165 6.568L24.7365 7.752C24.5605 7.272 24.0165 6.984 23.4725 6.984C23.0565 6.984 22.8325 7.16 22.8325 7.4C22.8325 8.392 27.0565 7.48 27.0565 10.488C27.0565 12.168 25.4085 13.256 23.4565 13.256ZM31.5312 13H28.6513V1.32H31.5312V5.24C32.0753 4.936 32.7313 4.76 33.4513 4.76C35.9633 4.76 37.2113 6.28 37.2113 8.856V13L34.3313 12.984V9.16C34.3313 8.264 33.8513 7.464 32.9873 7.464C32.0753 7.464 31.5312 8.168 31.5312 9.16V13ZM40.5756 4.152C39.6316 4.152 38.8476 3.368 38.8476 2.424C38.8476 1.48 39.6316 0.695999 40.5756 0.695999C41.5196 0.695999 42.3036 1.48 42.3036 2.424C42.3036 3.368 41.5196 4.152 40.5756 4.152ZM39.1356 5H42.0156V13H39.1356V5ZM44.2606 1.32H47.1406V13H44.2606V1.32ZM57.726 13.256C55.678 13.256 54.078 12.408 53.342 10.808L55.806 9.576C56.11 10.232 56.718 10.536 57.726 10.536C58.51 10.536 59.102 10.296 59.102 9.784C59.102 9.144 58.462 9.048 57.486 8.904C55.87 8.664 53.502 8.04 53.502 5.464C53.502 3.48 55.278 1.96 57.678 1.96C59.566 1.96 61.166 2.808 61.902 4.408L59.438 5.64C59.134 5.112 58.558 4.68 57.55 4.68C56.846 4.68 56.462 4.904 56.462 5.352C56.462 5.96 57.166 6.152 58.222 6.312C59.822 6.552 62.062 7.16 62.062 9.752C62.062 11.736 60.126 13.256 57.726 13.256ZM67.2074 10.44C68.1354 10.44 68.5354 9.592 68.5354 8.584V5H71.4154V8.936C71.4154 11.288 70.0394 13.24 67.2074 13.24C64.3754 13.24 62.9994 11.288 62.9994 8.936V5H65.8794V8.584C65.8794 9.592 66.2794 10.44 67.2074 10.44ZM75.7425 13H72.8625V8.568C72.8625 6.44 74.0785 4.744 76.6865 4.744C77.2305 4.744 77.8225 4.84 78.2225 5.016V7.784C77.8385 7.576 77.3585 7.464 76.9585 7.464C76.2065 7.464 75.7425 7.896 75.7425 8.664V13ZM83.4288 13.224C80.8688 13.224 78.9488 11.528 78.9488 8.904C78.9488 6.6 80.6768 4.68 83.2048 4.68C85.8288 4.68 87.2847 6.632 87.2847 8.776V9.496H81.7168C81.9088 10.296 82.5168 10.776 83.3968 10.776C84.1648 10.776 84.7728 10.36 85.0608 9.736L87.2688 10.84C86.5808 12.328 85.2208 13.224 83.4288 13.224ZM81.8448 8.008H84.4208C84.2928 7.56 83.8448 7.144 83.1727 7.144C82.4848 7.144 82.0208 7.544 81.8448 8.008ZM92.0659 13.256C90.2579 13.256 89.0899 12.632 88.4019 11.416L90.4819 10.248C90.7699 10.76 91.2019 11.016 91.9219 11.016C92.5139 11.016 92.7859 10.808 92.7859 10.552C92.7859 9.576 88.5619 10.568 88.5619 7.464C88.5619 5.96 89.8419 4.744 92.0179 4.744C93.9219 4.744 94.9619 5.672 95.4259 6.568L93.3459 7.752C93.1699 7.272 92.6259 6.984 92.0819 6.984C91.6659 6.984 91.4419 7.16 91.4419 7.4C91.4419 8.392 95.6659 7.48 95.6659 10.488C95.6659 12.168 94.0179 13.256 92.0659 13.256ZM100.141 13H97.2606V1.32H100.141V5.24C100.685 4.936 101.341 4.76 102.061 4.76C104.573 4.76 105.821 6.28 105.821 8.856V13L102.941 12.984V9.16C102.941 8.264 102.461 7.464 101.597 7.464C100.685 7.464 100.141 8.168 100.141 9.16V13Z" fill="white"/>
</svg>
