<svg width="1058" height="400" viewBox="0 0 1058 400" fill="none" xmlns="http://www.w3.org/2000/svg">
<path d="M607.51 203.881L649.991 161.529L607.51 119.177L620.461 106.268L675.895 161.529L620.461 216.789L607.51 203.881Z" fill="#0A1527"/>
<path d="M503.464 144.538H486.195V161.807H503.464V144.538Z" fill="#0A1527"/>
<path d="M572.885 144.538H555.616V161.807H572.885V144.538Z" fill="#0A1527"/>
<path d="M538.175 144.538H520.906V161.807H538.175V144.538Z" fill="#0A1527"/>
<path d="M462.796 203.449L420.271 161.097L462.753 118.745L449.801 105.837L394.411 161.097L449.844 216.358L462.796 203.449Z" fill="#0A1527"/>
<path d="M607.51 195.678L649.991 153.326L607.51 110.974L620.461 98.0652L675.895 153.326L620.461 208.587L607.51 195.678Z" fill="#F0FCF0"/>
<path d="M486.195 156.348H503.464V139.079H486.195L486.195 156.348ZM572.885 139.079H555.617V156.348H572.885V139.079ZM520.906 156.348H538.175V139.079H520.906V156.348Z" fill="#F0FCF0"/>
<path d="M462.796 195.246L420.271 152.894L462.753 110.542L449.801 97.6338L394.411 152.894L449.844 208.155L462.796 195.246Z" fill="#F0FCF0"/>
<path d="M254.838 333.334L264.505 335.671L278.12 299.496L263.852 296.047L254.838 333.334Z" fill="#A0616A"/>
<path d="M250.261 342.015L253.229 329.736L272.143 334.308C275.326 335.082 278.073 337.086 279.78 339.882C281.487 342.677 282.015 346.036 281.249 349.221L281.184 349.491L250.261 342.015Z" fill="#2F2E41"/>
<path d="M297.634 339.92L307.58 339.92L312.311 301.558L297.633 301.558L297.634 339.92Z" fill="#A0616A"/>
<path d="M295.225 336.8L314.684 336.799C317.96 336.799 321.103 338.101 323.42 340.418C325.737 342.735 327.039 345.877 327.039 349.154V349.432L295.225 349.433L295.225 336.8Z" fill="#2F2E41"/>
<path d="M295.301 326.646L296.936 266.965L294.733 242.765L290.435 261.388L271.655 322.631L255.465 318.371L274.215 252.336L270.143 209.982L281.843 202.46L282.001 202.489L321.976 209.857L312.319 324.944L295.301 326.646Z" fill="#2F2E41"/>
<path d="M311.121 218.166C307.902 218.166 304.137 217.129 299.947 214.171C286.536 204.706 270.546 214.888 270.386 214.991L269.736 215.413L269.759 214.639C269.775 214.087 271.381 159.277 271.381 141.639C271.381 123.417 283.27 110.113 286.914 106.469C290.49 102.892 293.499 102.971 297.309 103.07C297.965 103.087 298.649 103.105 299.369 103.105C304.347 103.105 309.187 107.888 309.391 108.092L309.488 108.189L309.506 108.325L323.32 212.333L323.214 212.467C323.15 212.549 318.614 218.166 311.121 218.166Z" fill="#F0FCF0"/>
<path d="M318.966 86.5975C324.244 76.9418 320.696 64.8354 311.04 59.5571C301.384 54.2789 289.278 57.8274 284 67.4831C278.721 77.1388 282.27 89.2452 291.926 94.5235C301.581 99.8018 313.688 96.2532 318.966 86.5975Z" fill="#A0616A"/>
<path d="M331.985 234.82C331.042 234.089 330.271 233.161 329.726 232.1C329.181 231.039 328.875 229.872 328.83 228.68C328.785 227.489 329.002 226.301 329.465 225.203C329.928 224.104 330.627 223.12 331.512 222.32L320.196 195.63L335.012 198.357L343.486 223.284C344.731 224.859 345.354 226.837 345.239 228.841C345.123 230.846 344.277 232.738 342.859 234.16C341.441 235.582 339.551 236.435 337.547 236.556C335.543 236.678 333.564 236.06 331.985 234.82Z" fill="#A0616A"/>
<path d="M328.78 219.627L308.334 177.918L299.369 146.526L299.376 119.255C299.396 119.147 301.504 108.539 309.316 109.273C316.399 109.959 320.214 113.423 322.072 120.854C323.65 127.168 321.491 145.898 321.283 147.665C322.653 150.915 343.216 199.908 339.811 205.808C339.684 206.038 339.499 206.23 339.273 206.366L342.917 214.058L328.78 219.627Z" fill="#F0FCF0"/>
<path d="M298.936 84.547C301.324 84.8578 303.126 82.414 303.962 80.1549C304.797 77.8959 305.434 75.2659 307.511 74.0457C310.348 72.3785 313.978 74.3837 317.222 73.8336C320.886 73.2124 323.268 69.3294 323.455 65.6179C323.642 61.9064 322.165 58.3367 320.715 54.9147L320.209 59.1675C320.277 57.7261 319.974 56.2915 319.328 55.0008C318.683 53.7102 317.718 52.6067 316.524 51.7959L317.176 58.0361C317.037 57.1752 316.73 56.3502 316.272 55.6083C315.813 54.8665 315.213 54.2225 314.505 53.7133C313.797 53.2041 312.995 52.8397 312.146 52.6411C311.297 52.4425 310.417 52.4135 309.557 52.5558L309.659 56.274C305.427 55.7708 301.159 55.2668 296.914 55.6502C292.67 56.0336 288.396 57.3765 285.179 60.1717C280.367 64.3529 278.61 71.2379 279.2 77.5852C279.79 83.9326 282.41 89.8955 285.141 95.6558C285.828 97.105 286.778 98.7405 288.371 98.9251C289.803 99.091 291.113 97.8943 291.558 96.5236C291.901 95.1172 291.887 93.6475 291.519 92.2475C291.117 90.108 290.609 87.9212 290.988 85.7774C291.366 83.6335 292.908 81.515 295.07 81.2522C297.231 80.9895 299.442 83.4598 298.403 85.3728L298.936 84.547Z" fill="#2F2E41"/>
<path d="M792.116 232.163C791.451 231.405 790.96 230.51 790.679 229.542C790.397 228.574 790.331 227.555 790.485 226.559C790.639 225.562 791.01 224.612 791.571 223.774C792.133 222.937 792.871 222.232 793.734 221.711L788.635 197.735L800.494 202.382L803.519 224.437C804.299 225.945 804.498 227.687 804.08 229.332C803.662 230.977 802.654 232.412 801.249 233.364C799.843 234.317 798.137 234.72 796.454 234.499C794.771 234.277 793.227 233.446 792.116 232.163Z" fill="#FFB8B8"/>
<path d="M790.77 213.456L790.706 213.22C784.295 189.507 777.668 164.994 769.577 138.304L769.523 138.129L769.702 138.025C774.212 135.393 780.99 135.568 785.469 138.432C787.496 139.738 789.073 141.635 789.986 143.867C790.9 146.099 791.105 148.557 790.574 150.91L796.476 181.679C798.875 191.737 801.358 202.147 803.731 212.412L803.798 212.703L803.431 212.727C799.11 213.002 794.646 213.286 791.069 213.443L790.77 213.456Z" fill="#F0FCF0"/>
<path d="M736.283 341.082H727.874L723.872 308.646H736.283V341.082Z" fill="#FFB8B8"/>
<path d="M738.429 349.234H711.313V348.891C711.317 346.093 712.43 343.41 714.408 341.431C716.387 339.453 719.07 338.34 721.868 338.337H738.429L738.429 349.234Z" fill="#2F2E41"/>
<path d="M815.526 334.145L807.513 336.698L793.852 307.008L805.678 303.24L815.526 334.145Z" fill="#FFB8B8"/>
<path d="M794.208 349.493L794.104 349.166C793.258 346.499 793.504 343.605 794.788 341.119C796.073 338.633 798.291 336.758 800.956 335.906L816.735 330.878L820.044 341.261L794.208 349.493Z" fill="#2F2E41"/>
<path d="M772.963 116.573C782.268 116.573 789.81 109.03 789.81 99.726C789.81 90.4216 782.268 82.8789 772.963 82.8789C763.659 82.8789 756.116 90.4216 756.116 99.726C756.116 109.03 763.659 116.573 772.963 116.573Z" fill="#FFB8B8"/>
<path d="M780.526 96.6037C780.622 89.8087 777.778 83.079 773.381 79.6956C771.309 78.0538 768.731 77.1819 766.088 77.2286C763.444 77.2753 760.899 78.2378 758.886 79.9517C754.557 83.4894 751.847 90.3172 752.076 97.1065C761.776 97.1341 771.475 97.1616 780.526 96.6037Z" fill="#2F2E41"/>
<path d="M741.085 330.641L740.748 330.608C733.432 329.89 725.866 329.149 718.717 329.064L718.328 329.059L718.381 328.674C720.075 316.406 720.793 303.652 721.488 291.317C722.173 279.138 722.882 266.544 724.534 254.583C725.232 251.38 725.913 248.216 726.592 245.062C732.207 218.968 737.51 194.32 748.457 169.921L748.561 169.691L748.811 169.721C759.083 170.964 768.952 174.711 776.602 180.273L776.75 180.38L776.743 180.564C776.595 184.353 776.443 188.271 776.669 191.84C780.14 196.664 782.441 202.23 783.388 208.098C784.335 213.965 783.902 219.973 782.124 225.644C785.136 235.711 788.25 246.116 791.428 256.38C799.143 277.533 807.127 299.423 815.312 321.613L815.446 321.977L815.068 322.065C809.18 323.448 803.105 324.873 797.113 325.426L796.887 325.447L796.779 325.247C781.497 296.808 769.07 266.926 759.678 236.038C757.633 242.274 754.687 247.904 751.833 253.357C749.104 258.316 746.702 263.449 744.643 268.723C743.38 279.095 743.045 290.332 742.721 301.199C742.415 311.474 742.126 321.179 741.122 330.304L741.085 330.641Z" fill="#2F2E41"/>
<path d="M767.211 80.0072C774.513 78.4339 782.591 79.9307 788.326 84.8577C794.06 89.7846 796.973 98.3081 794.617 105.618C792.261 112.928 784.262 118.071 777.03 116.184C779.101 110.345 776.77 103.176 771.705 99.8127C765.699 95.8242 764.046 86.3019 767.211 80.0072Z" fill="#2F2E41"/>
<path d="M776.077 181.005L775.81 180.884C766.494 176.634 757.36 173.372 748.801 170.397L748.539 170.34L748.538 169.579L748.708 169.639C748.744 169.56 748.785 169.47 748.825 169.381C748.942 169.122 749.022 168.946 749.089 168.829L749.088 168.828C749.801 167.374 750.368 165.969 750.917 164.61C751.483 163.208 752.067 161.76 752.822 160.228C750.992 158.393 749.739 156.062 749.218 153.524C748.697 150.985 748.93 148.349 749.889 145.941C751.779 141.46 756.6 137.97 761.665 137.391C763.521 132.282 767.657 121.546 767.657 121.546C767.657 121.546 776.353 121.308 779.85 120.864L779.909 120.856L779.967 120.869C787.602 122.542 793.976 129.767 795.467 138.438C796.726 145.757 794.815 154.129 790.085 162.011C787.658 165.865 784.975 169.552 782.053 173.047C779.922 175.711 777.91 178.227 776.239 180.761L776.077 181.005Z" fill="#F0FCF0"/>
<path d="M792.939 89.9906C787.827 89.2276 783.814 84.0022 784.395 78.8664C784.976 73.7307 790.056 69.5341 795.209 69.9325C800.362 70.3308 804.736 75.2582 804.521 80.4223C804.306 85.5863 799.466 90.9649 792.939 89.9906Z" fill="#2F2E41"/>
<path d="M792.142 86.6604C787.03 85.8974 783.016 80.672 783.597 75.5363C783.851 73.7894 784.542 72.1352 785.608 70.7277C786.673 69.3203 788.077 68.2055 789.69 67.4873C785.567 68.3896 782.019 71.9818 781.539 76.2222C780.958 81.3579 784.972 86.5833 790.084 87.3464C791.989 87.6453 793.939 87.3725 795.689 86.5624C794.522 86.8074 793.32 86.8406 792.142 86.6604Z" fill="#2F2E41"/>
<path d="M692.984 177.188C693.477 176.308 694.157 175.547 694.976 174.959C695.795 174.371 696.733 173.969 697.724 173.783C698.715 173.596 699.735 173.629 700.712 173.879C701.689 174.129 702.599 174.591 703.378 175.231L724.284 162.435L723.855 175.165L704.068 185.365C702.906 186.602 701.33 187.371 699.639 187.525C697.949 187.679 696.26 187.207 694.894 186.199C693.528 185.191 692.579 183.717 692.227 182.056C691.875 180.395 692.144 178.663 692.984 177.188Z" fill="#FFB8B8"/>
<path d="M710.174 169.685L710.375 169.547C730.597 155.601 751.501 141.185 773.971 124.663L774.118 124.555L774.276 124.689C778.259 128.064 780.353 134.513 779.145 139.69C778.589 142.037 777.326 144.156 775.526 145.761C773.726 147.366 771.476 148.378 769.081 148.662L742.036 164.478C733.353 170.091 724.364 175.901 715.476 181.558L715.224 181.719L715.08 181.38C713.381 177.398 711.626 173.283 710.286 169.963L710.174 169.685Z" fill="#F0FCF0"/>
<path d="M428.169 350H166.83C166.649 350 166.474 349.928 166.345 349.799C166.217 349.671 166.145 349.496 166.145 349.314C166.145 349.132 166.217 348.958 166.345 348.829C166.474 348.7 166.649 348.628 166.83 348.628H428.169C428.351 348.628 428.525 348.7 428.654 348.829C428.783 348.958 428.855 349.132 428.855 349.314C428.855 349.496 428.783 349.671 428.654 349.799C428.525 349.928 428.351 350 428.169 350Z" fill="#3F3D56"/>
<path d="M891.171 350H629.832C629.65 350 629.476 349.928 629.347 349.799C629.219 349.671 629.146 349.496 629.146 349.314C629.146 349.132 629.219 348.958 629.347 348.829C629.476 348.7 629.65 348.628 629.832 348.628H891.171C891.353 348.628 891.527 348.7 891.656 348.829C891.785 348.958 891.857 349.132 891.857 349.314C891.857 349.496 891.785 349.671 891.656 349.799C891.527 349.928 891.353 350 891.171 350Z" fill="#3F3D56"/>
</svg>
