<svg width="1058" height="399" viewBox="0 0 1058 399" fill="none" xmlns="http://www.w3.org/2000/svg">
<path d="M685.619 353.79C722.827 353.79 752.99 347.733 752.99 340.26C752.99 332.787 722.827 326.729 685.619 326.729C648.412 326.729 618.249 332.787 618.249 340.26C618.249 347.733 648.412 353.79 685.619 353.79Z" stroke="#F0FCF0" stroke-width="0.563768" stroke-miterlimit="10"/>
<path d="M431.382 232.479C431.58 232.98 431.803 233.472 432.053 233.95V234.012C432.053 234.012 435.244 245.8 436.738 248.275C437.172 248.991 437.662 249.769 438.147 250.53C438.051 251.09 438.051 251.662 438.147 252.222C438.598 254.849 439.145 258.463 438.897 259.258C438.649 260.053 439.196 262.031 438.333 262.719C437.47 263.407 436.585 264.602 439.229 266.186C439.229 266.186 439.726 267.522 439.28 267.821C439.229 267.855 439.28 267.928 439.404 268.024C438.677 270.178 437.611 273.662 438.277 273.91C438.643 274.051 439.635 273.532 440.723 272.833C440.752 272.974 440.774 273.126 440.802 273.279C440.975 274.439 441.243 275.584 441.603 276.701C442.088 277.777 442.573 279.593 442.313 280.19C442.054 280.788 443.024 282.118 442.798 282.643C442.573 283.167 443.548 284.87 443.548 284.87C443.548 284.87 444.518 288.173 444.478 289.29C444.439 290.406 445.527 297.605 445.527 297.605C445.527 297.605 444.399 301.32 444.963 302.397C445.527 303.474 445.893 307.189 444.963 308.565C444.033 309.94 442.866 312.979 443.243 313.797C443.621 314.614 442.719 324.717 444.997 328.877C445.288 330.425 445.501 331.987 445.634 333.557C445.634 334.684 447.427 337.678 447.427 337.678C447.427 337.678 446.344 342.188 449 342.949C449.183 343.006 449.372 343.042 449.563 343.056C449.644 343.549 449.578 344.055 449.372 344.511C448.918 345.139 448.596 345.852 448.424 346.608C448.385 346.75 448.404 346.902 448.475 347.031C448.774 347.363 449.603 351.823 449.603 351.823C449.603 351.823 450.798 356.835 457.377 355.611C457.377 355.611 461.825 355.352 461.453 353.79C461.331 353.275 461.169 352.77 460.968 352.279C460.812 351.962 460.672 351.637 460.551 351.304C460.478 350.932 459.542 349.889 459.469 349.184C459.395 348.48 458.798 347.104 458.905 346.659C459.012 346.213 457.896 343.022 457.817 342.312C457.726 341.818 457.584 341.334 457.394 340.869L457.631 340.756C457.631 340.756 458.228 337.413 457.71 336.189C457.191 334.966 455.128 333.371 455.128 333.371C455.128 333.371 455.426 325.162 455.054 324.046C454.682 322.93 455.24 318.701 455.24 318.701C455.24 318.701 456.509 312.72 456.436 311.372C456.393 310.538 456.52 309.704 456.808 308.92C456.808 308.92 457.597 300.12 458.116 299.003C458.634 297.887 459.243 286.972 459.243 286.972L459.593 287.976C460.084 289.482 460.668 290.956 461.34 292.39C461.628 292.841 462.468 294.285 463.19 295.491L464.255 297.295C464.255 297.295 464.74 299.043 464.402 300.114C464.063 301.185 467.88 306.981 467.88 306.981C467.634 307.464 467.507 308 467.508 308.542C467.615 309.106 466.347 310.882 466.347 310.882C466.347 310.882 465.862 312.477 466.161 313.035C466.459 313.594 465.676 316.897 465.676 316.897C465.676 316.897 464.402 324.176 464.103 325.032C463.804 325.889 464.255 331.753 464.255 331.753C464.255 331.753 461.91 337.757 462.998 339.752C463.043 340.491 463.049 341.619 462.761 342.075C462.372 342.684 462.485 344.933 462.524 345.554C462.524 345.661 462.524 345.717 462.524 345.717C462.524 345.717 461.25 347.408 462.857 348.096C464.464 348.784 469.927 349.28 469.927 349.28C469.927 349.28 475.119 350.769 477.622 351.174C480.125 351.58 485.363 351.434 485.735 349.912C485.867 349.439 485.913 348.946 485.87 348.457C485.836 348.148 485.724 347.853 485.543 347.6C485.362 347.348 485.12 347.146 484.838 347.014C483.299 346.402 481.725 345.88 480.125 345.452C480.125 345.452 477.656 344.888 477.43 343.817C477.205 342.746 473.693 339.769 473.693 339.769C473.693 339.769 473.653 339.561 473.58 339.279H473.693L473.523 339.11C473.349 338.546 473.067 337.802 472.723 337.943C472.669 337.842 472.636 337.731 472.627 337.617C472.617 337.503 472.63 337.389 472.666 337.28C472.702 337.172 472.76 337.071 472.835 336.986C472.911 336.9 473.003 336.83 473.106 336.781C474.454 336.043 475.277 333.703 474.899 331.178C474.521 328.652 474.454 329.097 475.237 327.648C475.724 326.553 475.918 325.351 475.801 324.159L477.87 316.446C478.194 315.499 478.395 314.513 478.468 313.515C478.503 312.729 478.707 311.96 479.065 311.26C479.065 311.26 480.001 305.909 480.824 304.686C481.647 303.463 480.26 299.15 480.26 299.15C480.26 299.15 478.992 292.469 479.065 289.419C479.139 286.369 475.773 275.793 475.773 275.793C475.341 275.106 475.158 274.292 475.254 273.487C475.322 272.856 474.927 271.83 474.482 270.911L474.341 270.623C474.513 270.402 474.72 270.212 474.955 270.059C475.88 269.496 476.314 268.013 476.32 266.97L463.573 236.927C463.573 236.837 469.476 224.778 469.459 224.687C469.109 222.708 465.772 217.46 465.772 217.46C465.74 217.394 465.691 217.338 465.631 217.296C464.881 216.952 462.344 215.515 462.344 215.515C460.354 213.057 458.488 212.549 457.27 212.566C456.887 212.562 456.506 212.621 456.142 212.741C456.013 212.781 455.886 212.832 455.765 212.893L455.708 213.384C455.604 212.249 455.694 211.106 455.973 210.001C456.002 209.905 456.03 209.804 456.052 209.708C456.238 209.708 456.424 209.708 456.616 209.708C457.809 209.712 458.992 209.48 460.096 209.027C461.2 208.574 462.204 207.907 463.05 207.066C463.897 206.225 464.569 205.225 465.03 204.124C465.49 203.023 465.728 201.842 465.732 200.648C465.732 199.8 465.614 198.956 465.383 198.139L465.338 198.01L465.619 197.886C466.747 197.469 468.162 198.179 469.075 197.423C469.406 197.095 469.644 196.685 469.763 196.234C470.016 195.63 470.185 194.995 470.265 194.345C470.265 194.233 470.265 194.12 470.265 194.007C470.268 193.973 470.268 193.939 470.265 193.906C470.268 193.864 470.268 193.823 470.265 193.782C470.265 193.731 470.265 193.68 470.265 193.629C470.214 193.215 470.046 192.824 469.78 192.502C469.182 191.803 468.185 191.634 467.429 191.121C466.811 190.642 466.299 190.041 465.924 189.356C465.548 188.675 465.053 188.066 464.464 187.558C464.164 187.306 463.802 187.141 463.415 187.08C463.029 187.02 462.633 187.066 462.271 187.214C462.05 187.365 461.806 187.479 461.549 187.552C461.269 187.556 460.994 187.482 460.754 187.338C458.161 186.126 455.116 186.34 452.298 186.701C451.152 186.792 450.028 187.062 448.966 187.501C448.435 187.72 447.958 188.051 447.569 188.473C447.179 188.894 446.886 189.396 446.711 189.942C446.479 190.816 446.654 191.763 446.378 192.626C446.186 193.19 445.814 193.708 445.577 194.278C445.462 194.576 445.39 194.889 445.363 195.208C445.363 195.208 445.363 195.27 445.363 195.298C445.267 196.578 445.769 197.925 446.012 199.244C446.344 201.043 446.175 202.999 446.947 204.702C447.024 204.91 447.123 205.111 447.241 205.299C446.97 205.863 446.677 206.461 446.395 207.019C445.978 206.9 444.704 206.619 444.658 207.735C444.65 208.642 444.438 209.536 444.038 210.351C443.979 210.398 443.917 210.441 443.852 210.48C443.784 210.512 443.726 210.564 443.689 210.63C443.651 210.696 443.636 210.772 443.644 210.847L443.497 210.96C443.433 210.964 443.37 210.985 443.317 211.022C443.238 210.886 442.978 210.875 442.155 211.856C441.06 212.995 439.8 213.965 438.418 214.731C438.418 214.731 432.881 218.593 432.583 220.369C432.284 222.145 430.435 229.902 431.382 232.479ZM455.691 213.637C455.691 213.637 455.691 213.598 455.691 213.575L455.759 213.609L455.691 213.637ZM470.733 339.922C470.583 339.985 470.422 340.018 470.259 340.017L470.733 339.922Z" fill="url(#paint0_linear_32_1350)"/>
<path d="M457.986 355.628C451.486 356.846 450.302 351.862 450.302 351.862C450.302 351.862 449.49 347.431 449.174 347.099C449.103 346.97 449.085 346.818 449.124 346.676C449.293 345.925 449.612 345.216 450.059 344.59C450.465 344.111 450.133 342.115 450.133 342.115L457.665 340.198C457.987 340.909 458.234 341.652 458.403 342.414C458.482 343.113 459.587 346.292 459.474 346.732C459.362 347.172 459.959 348.542 460.038 349.246C460.117 349.951 461.036 350.983 461.109 351.349C461.223 351.683 461.358 352.009 461.515 352.325C461.716 352.81 461.877 353.312 461.994 353.824C462.378 355.369 457.986 355.628 457.986 355.628Z" fill="#444053"/>
<path opacity="0.1" d="M457.986 355.628C451.486 356.846 450.302 351.862 450.302 351.862C450.302 351.862 449.49 347.431 449.174 347.098C449.103 346.969 449.085 346.818 449.124 346.676L450.685 351.186C450.685 351.186 451.982 353.886 456.78 353.475C459.514 353.249 460.856 352.742 461.51 352.347C461.711 352.833 461.871 353.334 461.989 353.847C462.378 355.369 457.986 355.628 457.986 355.628Z" fill="black"/>
<path opacity="0.1" d="M452.924 348.609C452.924 348.609 454.553 348.649 454.66 347.318L452.924 348.609Z" fill="black"/>
<path d="M481.18 304.957C480.369 306.174 479.444 311.491 479.444 311.491C479.1 312.195 478.908 312.963 478.88 313.746C478.82 314.74 478.631 315.721 478.316 316.666L476.18 324.311C476.293 325.496 476.099 326.69 475.616 327.778C474.844 329.221 474.917 328.776 475.283 331.29C475.65 333.805 474.844 336.127 473.513 336.866C472.183 337.604 474.105 339.341 474.105 339.341C474.105 339.341 465.609 341.63 463.833 340.226C462.057 338.822 464.758 331.882 464.758 331.882C464.758 331.882 464.318 326.047 464.611 325.196C464.904 324.345 466.162 317.106 466.162 317.106C466.162 317.106 466.94 313.819 466.641 313.267C466.342 312.714 466.827 311.124 466.827 311.124C466.827 311.124 468.084 309.348 467.954 308.796C467.956 308.257 468.084 307.726 468.326 307.246C468.326 307.246 464.56 301.484 464.887 300.413C465.214 299.341 464.741 297.594 464.741 297.594C464.741 297.594 464.267 296.776 463.692 295.801C462.993 294.6 462.148 293.168 461.86 292.717C461.2 291.291 460.626 289.826 460.14 288.331L459.791 287.328C459.791 287.328 459.227 298.186 458.663 299.291C458.1 300.396 457.372 309.157 457.372 309.157C457.085 309.935 456.958 310.764 457 311.592C457.074 312.957 455.816 318.921 455.816 318.921C455.816 318.921 455.253 323.133 455.636 324.243C456.019 325.354 455.709 333.512 455.709 333.512C455.709 333.512 457.739 335.101 458.258 336.33C458.776 337.559 458.184 340.874 458.184 340.874C458.184 340.874 452.276 343.828 449.649 343.05C447.022 342.272 448.098 337.807 448.098 337.807C448.098 337.807 446.328 334.853 446.328 333.709C446.197 332.147 445.986 330.593 445.697 329.052C443.442 324.914 444.332 314.873 443.966 314.056C443.6 313.238 444.738 310.217 445.657 308.852C446.576 307.488 446.221 303.778 445.657 302.718C445.094 301.659 446.221 297.955 446.221 297.955C446.221 297.955 445.15 290.789 445.189 289.684C445.229 288.579 444.265 285.287 444.265 285.287C444.265 285.287 443.306 283.595 443.526 283.071C443.746 282.547 442.788 281.222 443.047 280.636C443.306 280.049 442.822 278.234 442.342 277.163C441.992 276.058 441.728 274.927 441.553 273.78C441.328 272.506 441.164 271.384 441.164 271.384L447.258 266.474L462.48 262.482L468.253 260.605L473.829 269.394C473.829 269.394 474.393 270.313 474.917 271.373C475.357 272.286 475.746 273.307 475.678 273.938C475.585 274.738 475.768 275.545 476.197 276.227C476.197 276.227 479.517 286.753 479.444 289.757C479.371 292.762 480.628 299.437 480.628 299.437C480.628 299.437 481.992 303.739 481.18 304.957Z" fill="#3F3D56"/>
<path opacity="0.1" d="M446.981 310.459C446.981 310.459 453.482 307.691 455.399 309.647C457.315 311.604 446.981 310.459 446.981 310.459Z" fill="black"/>
<path opacity="0.1" d="M450.635 311.564C450.635 311.564 444.044 315.29 446.299 315.888C448.554 316.486 450.635 311.564 450.635 311.564Z" fill="black"/>
<path opacity="0.1" d="M470.283 308.356C470.283 308.356 467.464 308.537 468.546 309.095C469.629 309.653 470.283 308.356 470.283 308.356Z" fill="black"/>
<path opacity="0.1" d="M473.794 309.202C473.755 309.388 465.631 312.021 467.221 313.193C468.811 314.366 473.794 309.202 473.794 309.202Z" fill="black"/>
<path opacity="0.1" d="M447.94 331.803C449.158 331.623 455.957 328.483 453.296 330.738C452.584 331.385 451.71 331.826 450.766 332.014C449.823 332.201 448.846 332.129 447.94 331.803Z" fill="black"/>
<path opacity="0.1" d="M451.3 334.278C451.3 334.278 451.892 336.573 454.147 336.274C456.402 335.975 451.3 334.278 451.3 334.278Z" fill="black"/>
<path opacity="0.1" d="M449.417 338.935C449.823 338.822 454.66 336.607 454.773 337.644C454.886 338.681 450.156 340.463 449.789 339.933C449.576 339.641 449.448 339.295 449.417 338.935Z" fill="black"/>
<path opacity="0.1" d="M465.079 336.274C465.643 336.24 471.207 334.464 472.318 336.054L465.079 336.274Z" fill="black"/>
<path opacity="0.1" d="M470.103 337.311C470.103 337.311 471.061 336.46 472.019 336.906C472.978 337.351 470.103 337.311 470.103 337.311Z" fill="black"/>
<path opacity="0.1" d="M457.84 346.467C457.9 346.781 458.05 347.072 458.272 347.302C458.495 347.532 458.779 347.693 459.091 347.764L457.84 346.467Z" fill="black"/>
<path d="M486.017 349.94C485.651 351.457 480.475 351.603 478.006 351.197C475.537 350.791 470.395 349.314 470.395 349.314C470.395 349.314 465.006 348.796 463.416 348.13C461.826 347.465 463.083 345.768 463.083 345.768C463.083 345.768 463.083 345.712 463.083 345.61C463.044 344.99 462.937 342.752 463.314 342.149C463.76 341.444 463.5 339.155 463.5 339.155C463.5 339.155 471.145 340.632 471.292 339.933C471.438 339.234 472.622 338.242 473.175 338.011C473.727 337.779 474.139 339.86 474.139 339.86C474.139 339.86 477.612 342.814 477.831 343.885C478.051 344.956 480.487 345.509 480.487 345.509C482.068 345.933 483.623 346.45 485.143 347.059C485.422 347.19 485.663 347.391 485.841 347.641C486.02 347.892 486.131 348.185 486.164 348.491C486.204 348.979 486.154 349.47 486.017 349.94Z" fill="#444053"/>
<path opacity="0.1" d="M486.017 349.94C485.651 351.456 480.475 351.603 478.006 351.197C475.537 350.791 470.395 349.314 470.395 349.314C470.395 349.314 465.006 348.795 463.416 348.13C461.826 347.465 463.083 345.768 463.083 345.768C463.083 345.768 463.083 345.712 463.083 345.61L470.812 347.301C470.812 347.301 474.618 348.925 477.053 348.925C479.184 348.925 483.948 349.799 486.164 348.474C486.206 348.967 486.156 349.464 486.017 349.94Z" fill="black"/>
<path opacity="0.1" d="M475.565 344.105C475.565 344.105 475.199 346.54 473.722 347.358L475.565 344.105Z" fill="black"/>
<path d="M499.237 254.33C497.038 255.165 491.964 255.255 489.709 255.255C489.021 255.255 488.582 255.255 488.582 255.255L487.133 252.301L488.582 249.837C488.582 249.837 489.912 249.471 491.682 249.149C494.293 248.681 497.884 248.315 499.575 249.369C502.417 251.134 502.112 253.276 499.237 254.33Z" fill="#A1616A"/>
<path d="M465.653 218.976L466.296 218.238C466.296 218.238 469.594 223.458 469.938 225.426C470.282 227.393 470.727 229.66 470.727 229.66C470.727 229.66 471.561 232.219 472.108 233.352C472.574 234.211 472.937 235.121 473.191 236.064C473.236 236.555 472.993 237.637 474.025 238.319C475.057 239.001 475.305 240.879 475.305 240.879C475.305 240.879 479.048 244.521 481.021 244.622C482.995 244.724 488.649 245.705 488.458 246.686C488.266 247.667 490.82 248.264 491.84 248.512C492.861 248.76 485.199 251.72 489.709 255.531C489.709 255.531 486.851 256.095 486.558 256.811C486.264 257.527 483.26 256.416 483.26 256.416C483.26 256.416 482.617 254.888 480.401 254.793C478.186 254.697 477.053 253.71 477.053 253.564C477.053 253.417 474.837 252.182 473.608 251.838C472.379 251.494 470.75 251.348 470.699 250.998C470.648 250.649 463.313 218.993 463.313 218.993L465.653 218.976Z" fill="#0A1527"/>
<path opacity="0.05" d="M465.653 219.101L466.296 218.362C466.296 218.362 469.594 223.583 469.938 225.556C470.282 227.529 470.727 229.79 470.727 229.79C470.727 229.79 471.561 232.349 472.108 233.482C472.573 234.339 472.936 235.248 473.191 236.188C473.236 236.685 472.993 237.767 474.025 238.443C475.057 239.12 475.305 241.003 475.305 241.003C475.305 241.003 479.048 244.651 481.021 244.746C482.995 244.842 488.649 245.829 488.458 246.815C488.266 247.802 490.82 248.394 491.84 248.636C492.861 248.879 485.199 251.85 489.709 255.644C489.709 255.644 486.851 256.208 486.558 256.924C486.264 257.64 483.26 256.529 483.26 256.529C483.26 256.529 482.617 255.001 480.401 254.906C478.186 254.81 477.053 253.823 477.053 253.671C477.053 253.519 474.837 252.295 473.608 251.951C472.379 251.607 470.75 251.455 470.699 251.111C470.648 250.767 463.313 219.101 463.313 219.101H465.653Z" fill="black"/>
<path d="M541.013 352.939C578.222 352.939 608.383 359 608.383 366.47C608.383 373.94 578.222 380 541.013 380C503.804 380 473.643 373.945 473.643 366.47" stroke="#F0FCF0" stroke-width="0.563768" stroke-miterlimit="10"/>
<path d="M527.168 74.0978L517.669 72.4861L505.685 143.115L515.184 144.726L527.168 74.0978Z" fill="#444053"/>
<path d="M538.386 357.556L540.494 372.609L542.298 356.959L538.386 357.556Z" fill="#D0D2D5"/>
<path d="M470.654 349.128V358.464L472.763 366.588H474.268L476.078 357.861L476.98 347.324L470.654 349.128Z" fill="#3F3D56"/>
<path d="M466.364 312.708L470.874 313.611C470.874 313.611 465.761 327.755 469.369 330.766H463.658C463.658 330.766 461.549 319.93 466.364 312.708Z" fill="#D0D2D5"/>
<path opacity="0.1" d="M466.364 312.708L470.874 313.611C470.874 313.611 465.761 327.755 469.369 330.766H463.658C463.658 330.766 461.549 319.93 466.364 312.708Z" fill="black"/>
<path d="M496.542 142.636L482.093 234.142C482.093 234.142 460.726 331.674 468.85 350.938H479.088L509.791 163.71L496.542 142.636Z" fill="white"/>
<path d="M533.187 131.271L544.265 223.244C544.265 223.244 552.333 340.412 543.499 359.36H534.772L519.178 151.843L533.187 131.271Z" fill="white"/>
<path d="M495.196 109.205C495.939 106.707 497.487 104.524 499.598 102.995C501.709 101.466 504.266 100.676 506.871 100.748C515.784 100.974 529.563 102.598 536.751 109.96C547.891 121.399 529.225 159.927 529.225 159.927C529.225 159.927 511.748 192.135 495.816 151.2C495.793 151.234 489.186 129.315 495.196 109.205Z" fill="#444053"/>
<path opacity="0.1" d="M495.196 109.205C495.939 106.707 497.487 104.524 499.598 102.995C501.709 101.466 504.266 100.676 506.871 100.748C515.784 100.974 529.563 102.598 536.751 109.96C547.891 121.399 529.225 159.927 529.225 159.927C529.225 159.927 511.748 192.135 495.816 151.2C495.793 151.234 489.186 129.315 495.196 109.205Z" fill="black"/>
<path d="M501.323 117.03C501.859 115.256 502.963 113.706 504.465 112.62C505.968 111.534 507.785 110.972 509.639 111.02C515.981 111.184 525.791 112.34 530.893 117.583C538.825 125.724 525.537 153.156 525.537 153.156C525.537 153.156 513.134 176.085 501.746 146.955C501.746 146.938 497.038 131.35 501.323 117.03Z" fill="#444053"/>
<path d="M532.178 351.439C532.274 352.894 532.5 354.422 533.419 355.561C534.941 357.444 537.709 357.59 540.077 358.182C541.895 358.702 543.658 359.397 545.342 360.257L550.467 362.681C549.153 362.757 547.857 363.027 546.622 363.481C545.962 363.724 545.241 364.124 545.145 364.812C545.132 365.099 545.207 365.383 545.359 365.626C545.511 365.87 545.733 366.062 545.996 366.176C546.532 366.397 547.109 366.499 547.688 366.475C550.74 366.561 553.794 366.401 556.821 365.996L557.181 365.945C558.737 366.716 560.286 367.503 561.827 368.307C562.47 368.646 563.242 368.307 563.783 367.834C564.444 367.249 565.028 366.582 565.52 365.849C565.61 366.007 565.7 366.159 565.773 366.312C566.269 367.264 566.737 368.51 566.027 369.322C565.463 369.954 564.398 370.061 564.076 370.827C563.989 371.105 563.992 371.403 564.087 371.678C564.181 371.953 564.361 372.19 564.601 372.355C565.091 372.679 565.655 372.873 566.241 372.919C567.636 373.111 569.05 373.099 570.441 372.885C571.195 372.832 571.91 372.529 572.471 372.023C572.951 371.37 573.204 370.578 573.193 369.767L574.157 358.813C574.244 358.293 574.206 357.76 574.044 357.257C573.66 356.327 572.55 355.938 571.546 355.775H571.439C572.274 355.775 573.13 355.735 574.033 355.735C574.818 355.786 575.607 355.686 576.355 355.442C577.787 354.878 578.56 353.373 579.174 351.986C580.302 349.551 581.598 346.912 581.429 344.206L580.989 344.009C580.95 341.128 579.743 338.439 579.298 335.626C579.787 334.87 580.048 333.989 580.048 333.089C579.989 332.099 579.774 331.125 579.411 330.202C577.624 324.892 575.837 319.564 573.446 314.49C571.9 311.111 570.01 307.9 567.809 304.906C567.233 304.154 566.636 303.403 566.016 302.651C565.565 302.132 564.556 301.399 564.37 300.74C564.183 300.08 564.578 299.437 564.37 298.761C564.316 298.585 564.248 298.413 564.167 298.248C565.486 296.5 565.114 293.974 564.651 291.798L564.088 289.087C563.967 288.339 563.731 287.614 563.389 286.939C563.026 286.359 562.571 285.843 562.041 285.411C559.267 282.908 555.84 281.245 552.722 279.17C549.424 276.977 546.476 274.31 543.521 271.677C542.619 270.877 541.486 270.014 540.319 270.353C539.152 270.691 538.667 271.954 538.628 273.104C538.617 273.901 538.775 274.692 539.091 275.425C539.406 276.157 539.873 276.815 540.46 277.355C542.501 279.221 545.585 279.373 548.015 280.692C548.85 281.177 549.643 281.729 550.388 282.344L557.446 287.886C557.982 288.206 558.375 288.718 558.546 289.318C558.574 289.679 558.516 290.043 558.377 290.378C558.112 291.189 557.661 292.21 557.328 293.242L556.764 292.836C555.596 291.962 554.344 291.207 553.027 290.581C551.279 289.867 549.433 289.424 547.552 289.267C543.386 288.799 539.66 289.442 537.111 292.92C536.583 293.715 535.912 294.405 535.132 294.955C534.555 295.224 534.015 295.567 533.526 295.976C532.218 297.425 532.962 299.826 534.191 301.05C535.231 302.016 536.513 302.684 537.901 302.983C538.666 304.691 540.032 306.057 541.739 306.822C543.446 307.587 545.374 307.698 547.158 307.133C547.245 307.859 547.262 308.591 547.208 309.32C547.181 309.696 547.239 310.072 547.376 310.422C547.514 310.773 547.728 311.088 548.003 311.344C548.3 311.546 548.627 311.698 548.973 311.795C550.22 312.247 551.401 312.863 552.485 313.627C551.212 315.006 550.162 316.576 549.373 318.279C548.888 319.409 548.686 320.64 548.784 321.866C548.883 323.092 549.278 324.276 549.937 325.314L549.971 325.359C549.876 325.711 549.7 326.035 549.458 326.307C549.114 326.575 548.68 326.7 548.246 326.656C547.812 326.612 547.412 326.402 547.129 326.07C546.646 325.498 546.237 324.867 545.912 324.192C545.354 323.281 544.617 322.493 543.744 321.877C542.872 321.26 541.883 320.828 540.838 320.607C540.065 320.409 539.252 320.443 538.498 320.703C538.127 320.836 537.803 321.072 537.562 321.384C537.321 321.695 537.174 322.069 537.14 322.462C537.14 323.313 537.76 324.018 538.369 324.621C540.237 326.558 542.317 328.279 544.57 329.751C545.184 330.131 545.818 330.477 546.47 330.789C545.342 330.552 544.23 330.321 543.132 330.095C541.595 329.712 540.006 329.573 538.425 329.684C537.636 329.745 536.872 329.984 536.189 330.382C535.505 330.781 534.921 331.328 534.479 331.984C533.857 333.164 533.726 334.541 534.112 335.817C534.503 337.083 535.087 338.281 535.843 339.369C537.029 341.363 538.484 343.184 540.167 344.781C538.758 345.204 537.348 345.666 535.973 346.174C534.597 346.681 533.154 347.301 532.522 348.564C532.152 349.474 532.033 350.467 532.178 351.439ZM552.931 332.271H552.981C553.281 332.136 553.537 331.919 553.72 331.645C554.577 330.499 555.184 329.185 555.501 327.789C555.829 327.745 556.151 327.664 556.46 327.547C556.249 327.747 556.081 327.989 555.967 328.256C555.853 328.524 555.794 328.812 555.795 329.103L558.974 330.659C559.204 330.745 559.401 330.901 559.538 331.104C559.625 331.315 559.647 331.547 559.6 331.769C559.51 332.497 559.369 333.224 559.279 333.946C558.326 333.664 557.39 333.438 556.55 333.213C555.355 332.886 554.143 332.581 552.931 332.277V332.271Z" fill="url(#paint1_linear_32_1350)"/>
<path d="M553.522 302.324C554.322 302.524 555.154 302.56 555.968 302.429C556.782 302.298 557.561 302.003 558.258 301.563C558.537 301.367 558.848 301.222 559.177 301.134C559.469 301.109 559.763 301.152 560.035 301.261C560.307 301.369 560.55 301.54 560.744 301.76C562.097 303.108 562.255 305.329 561.556 307.105C560.857 308.881 559.453 310.279 557.982 311.491C556.793 312.47 555.537 313.363 554.221 314.163C553.859 313.314 553.332 312.545 552.67 311.902C552.008 311.258 551.224 310.752 550.365 310.414C548.82 309.816 547.693 308.215 546.808 306.817C546.148 305.78 545.562 305.825 546.154 304.754C546.822 303.725 547.609 302.779 548.499 301.935C548.984 301.422 549.408 300.854 549.762 300.244C550.157 299.533 550.066 299.071 550.675 299.635C551.076 300.007 551.239 300.813 551.701 301.247C552.214 301.745 552.839 302.114 553.522 302.324Z" fill="#FABDBD"/>
<path d="M558.366 291.331C558.498 290.999 558.553 290.643 558.529 290.288C558.36 289.698 557.976 289.192 557.452 288.872L550.558 283.404C549.834 282.797 549.061 282.252 548.246 281.775C545.867 280.472 542.862 280.32 540.866 278.482C540.293 277.945 539.837 277.294 539.528 276.571C539.219 275.848 539.065 275.068 539.074 274.282C539.074 273.155 539.637 271.881 540.703 271.565C541.768 271.249 542.958 272.083 543.837 272.878C546.718 275.472 549.594 278.105 552.813 280.269C555.857 282.321 559.211 283.956 561.923 286.431C562.417 286.852 562.842 287.349 563.18 287.903C563.512 288.574 563.742 289.29 563.863 290.028L564.426 292.7C564.9 294.956 565.283 297.577 563.767 299.308C563.546 299.585 563.267 299.81 562.949 299.967C562.631 300.124 562.283 300.209 561.929 300.216C561.428 300.154 560.947 299.989 560.514 299.731C559.386 299.167 557.345 298.603 557.001 297.194C556.562 295.429 557.83 292.965 558.366 291.331Z" fill="#FABDBD"/>
<path d="M547.367 326.566C546.896 326 546.497 325.379 546.177 324.717C545.637 323.82 544.92 323.044 544.068 322.435C543.217 321.826 542.25 321.398 541.227 321.176C540.483 320.988 539.7 321.02 538.972 321.267C538.608 321.401 538.29 321.636 538.056 321.944C537.821 322.253 537.679 322.622 537.647 323.009C537.647 323.843 538.251 324.542 538.843 325.134C540.666 327.049 542.701 328.752 544.909 330.208C547.119 331.658 549.655 332.537 552.289 332.768C552.554 332.8 552.823 332.775 553.078 332.694C553.37 332.559 553.619 332.347 553.799 332.08C555.198 330.287 555.682 327.959 556.054 325.72C555.919 326.527 551.381 324.644 550.868 324.886C550.112 325.241 550.186 326.301 549.639 326.808C549.304 327.074 548.878 327.198 548.453 327.152C548.028 327.107 547.638 326.896 547.367 326.566Z" fill="#FABDBD"/>
<path d="M580.431 344.28C580.457 344.562 580.402 344.845 580.273 345.097C579.963 345.582 579.264 345.588 578.694 345.503C577.38 345.281 576.082 344.968 574.81 344.567L563.236 341.224C563.052 341.189 562.881 341.105 562.74 340.982C562.617 340.837 562.537 340.661 562.509 340.474C562.106 338.814 562.02 337.092 562.255 335.4C562.269 335.156 562.349 334.92 562.486 334.718C562.747 334.478 563.09 334.349 563.444 334.357C565.257 334.173 567.079 334.09 568.902 334.109C570.084 334.159 571.269 334.133 572.448 334.03C573.97 333.85 575.723 332.976 577.251 333.111C578.576 333.224 578.52 334.239 578.655 335.366C579.033 338.36 580.403 341.224 580.431 344.28Z" fill="#FABDBD"/>
<path d="M543.477 330.541C541.975 330.157 540.422 330.019 538.876 330.129C538.106 330.19 537.359 330.424 536.692 330.815C536.026 331.206 535.456 331.742 535.026 332.384C534.412 333.55 534.282 334.912 534.665 336.173C535.052 337.417 535.622 338.597 536.356 339.674C537.657 341.923 539.328 343.936 541.301 345.627C542.287 346.411 543.375 347.059 544.322 347.882C546.341 349.647 547.592 352.11 548.793 354.506C549.921 356.762 551.048 359.062 551.533 361.542C551.537 361.638 551.561 361.732 551.602 361.818C551.644 361.904 551.703 361.981 551.775 362.044C551.932 362.12 552.112 362.132 552.277 362.078L557.83 361.052C557.987 361.058 558.143 361.022 558.281 360.947C558.42 360.872 558.535 360.761 558.615 360.625C558.695 360.49 558.736 360.335 558.735 360.178C558.734 360.021 558.69 359.867 558.608 359.733C557.403 354.555 555.149 349.679 551.984 345.407C553.455 346.797 555.236 347.815 557.179 348.378C559.122 348.941 561.172 349.032 563.158 348.643C563.934 348.533 564.666 348.216 565.278 347.724C566.518 346.597 566.462 344.674 566.185 343.034C565.937 341.572 565.594 340.127 565.159 338.71C564.116 335.327 559.617 334.414 556.567 333.591C552.238 332.444 547.874 331.428 543.477 330.541Z" fill="#3F3D56"/>
<path opacity="0.1" d="M547.586 342.526C548.379 342.84 549.097 343.316 549.695 343.925C548.697 342.797 545.844 342.233 544.446 341.709C542.715 341.066 540.827 340.407 539.372 339.262C542.186 340.15 544.931 341.241 547.586 342.526Z" fill="black"/>
<path d="M565.571 366.289C566.05 367.236 566.507 368.459 565.819 369.266C565.289 369.886 564.229 369.993 563.913 370.748C563.827 371.022 563.83 371.316 563.922 371.588C564.014 371.86 564.191 372.095 564.426 372.259C564.902 372.583 565.454 372.777 566.027 372.823C567.39 373.009 568.772 372.998 570.132 372.789C570.868 372.735 571.565 372.436 572.11 371.938C572.585 371.283 572.832 370.491 572.815 369.683L573.757 358.87C573.84 358.355 573.803 357.829 573.65 357.331C573.272 356.412 572.189 356.034 571.208 355.871C570.112 355.685 568.996 355.639 567.888 355.735C567.14 355.745 566.415 355.994 565.819 356.446C565.265 357.076 564.924 357.865 564.844 358.701C564.59 359.986 563.88 361.768 564.032 363.07C564.128 364.147 565.097 365.342 565.571 366.289Z" fill="#0A1527"/>
<path d="M553.122 362.794C551.008 362.518 548.859 362.76 546.859 363.498C546.216 363.735 545.511 364.136 545.416 364.812C545.403 365.095 545.475 365.374 545.624 365.615C545.773 365.855 545.991 366.045 546.25 366.159C546.774 366.377 547.34 366.479 547.907 366.458C550.888 366.537 553.871 366.379 556.826 365.985C557.594 365.935 558.338 365.701 558.997 365.303C559.322 365.096 559.567 364.784 559.691 364.419C559.815 364.054 559.811 363.658 559.679 363.296C559.324 362.551 558.354 362.32 557.886 361.649C557.548 361.164 557.463 360.449 556.933 360.195C556.533 360.067 556.098 360.1 555.721 360.285C555.157 360.482 553.804 360.68 553.415 361.148C553.247 361.681 553.148 362.235 553.122 362.794Z" fill="#0A1527"/>
<path d="M545.139 308.238C549.227 308.238 552.541 304.924 552.541 300.836C552.541 296.747 549.227 293.433 545.139 293.433C541.05 293.433 537.736 296.747 537.736 300.836C537.736 304.924 541.05 308.238 545.139 308.238Z" fill="#FABDBD"/>
<path d="M562.695 297.577C561.506 296.703 560.006 296.404 558.557 296.134C558.068 295.981 557.541 296.007 557.069 296.207C556.758 296.433 556.511 296.736 556.353 297.086C555.906 297.811 555.575 298.6 555.372 299.426C555.273 299.84 555.272 300.271 555.37 300.686C555.468 301.1 555.662 301.485 555.936 301.811C556.376 302.262 557.007 302.487 557.458 302.938C557.751 303.265 557.963 303.655 558.079 304.078C558.194 304.5 558.209 304.944 558.123 305.374C557.941 306.229 557.607 307.044 557.137 307.781C556.05 309.697 554.809 311.523 553.427 313.238C551.989 315.026 550.377 316.745 549.531 318.876C549.06 319.994 548.865 321.209 548.963 322.418C549.061 323.627 549.45 324.795 550.095 325.822C551.465 327.817 554.194 328.889 556.455 328.026C556.249 328.224 556.085 328.463 555.975 328.726C555.864 328.99 555.809 329.274 555.812 329.56L558.913 331.099C559.142 331.183 559.339 331.337 559.476 331.538C559.56 331.746 559.579 331.974 559.533 332.192C559.29 333.443 559.163 334.713 559.155 335.987C559.24 337.255 559.82 338.591 560.97 339.144C562.025 339.651 563.276 339.38 564.426 339.144C567.112 338.6 569.844 338.313 572.584 338.287C573.948 338.287 575.358 338.32 576.615 337.791C577.458 337.419 578.175 336.812 578.682 336.044C579.189 335.275 579.464 334.376 579.473 333.455C579.417 332.477 579.206 331.514 578.847 330.602C577.105 325.359 575.358 320.105 573.024 315.093C571.503 311.758 569.65 308.585 567.493 305.622C566.929 304.872 566.366 304.134 565.74 303.418C565.3 302.905 564.313 302.183 564.133 301.529C563.953 300.875 564.336 300.244 564.133 299.578C563.88 298.775 563.376 298.074 562.695 297.577Z" fill="#F0FCF0"/>
<path d="M580.86 344.432C577.613 342.932 574.365 341.433 570.988 340.266C568.502 339.409 565.728 338.738 563.287 339.702C562.554 339.995 561.889 340.418 561.184 340.762C558.822 341.889 556.111 342.081 553.5 342.368C547.692 343.022 541.984 344.38 536.503 346.411C535.189 346.896 533.774 347.538 533.12 348.767C532.75 349.658 532.625 350.631 532.759 351.586C532.855 353.024 533.075 354.535 533.971 355.656C535.46 357.517 538.16 357.658 540.472 358.244C542.25 358.759 543.974 359.447 545.619 360.296C551.02 362.873 556.426 365.449 561.726 368.24C562.346 368.572 563.101 368.24 563.631 367.772C565.228 366.29 566.379 364.392 566.957 362.292C567.532 360.202 567.817 358.044 567.803 355.876C569.878 355.876 571.563 355.786 573.638 355.786C574.401 355.834 575.166 355.737 575.893 355.499C577.286 354.935 578.041 353.452 578.667 352.088C579.783 349.681 581.04 347.07 580.86 344.432Z" fill="#3F3D56"/>
<path opacity="0.1" d="M543.154 352.139C544.614 351.428 546.306 351.411 547.935 351.423C548.928 351.404 549.921 351.48 550.9 351.648C552.396 352.047 553.848 352.592 555.236 353.277C558.694 354.728 562.412 355.457 566.162 355.42" fill="black"/>
<path d="M534.732 301.884C535.848 302.913 537.231 303.607 538.724 303.886C540.189 304.224 541.7 304.354 543.177 304.681C544.993 305.081 546.977 306.039 547.389 307.855C547.484 308.582 547.503 309.317 547.445 310.048C547.418 310.413 547.473 310.78 547.604 311.122C547.736 311.464 547.941 311.773 548.206 312.027C548.497 312.223 548.816 312.373 549.153 312.472C552.111 313.602 554.66 315.596 556.469 318.194C558.279 320.792 559.266 323.874 559.301 327.04C560.23 326.498 561.025 325.755 561.628 324.865C562.231 323.975 562.627 322.961 562.785 321.898C562.785 323.86 564.476 325.844 563.518 327.598C564.564 326.914 565.456 326.022 566.138 324.975C566.821 323.929 567.278 322.753 567.482 321.521C567.686 320.288 567.632 319.027 567.324 317.817C567.015 316.607 566.458 315.474 565.689 314.49C564.944 313.543 563.997 312.754 563.219 311.846C562.115 310.571 561.285 309.082 560.783 307.472C560.28 305.861 560.116 304.164 560.299 302.488C560.462 301.061 560.863 299.618 560.564 298.214C560.13 296.269 558.422 294.916 556.798 293.76C555.657 292.901 554.433 292.157 553.145 291.539C551.439 290.833 549.634 290.393 547.795 290.237C543.73 289.78 540.116 290.412 537.596 293.845C537.086 294.63 536.431 295.31 535.668 295.852C535.102 296.119 534.574 296.458 534.095 296.861C532.804 298.293 533.537 300.661 534.732 301.884Z" fill="#3F3D56"/>
<path d="M458.702 219.343C458.471 219.247 442.404 212.611 444.608 211.292C445.922 210.508 447.54 207.193 448.645 204.594C449.417 202.785 449.941 201.319 449.941 201.319C449.941 201.319 462.84 199.03 458.223 206.957C457.495 208.17 456.947 209.482 456.594 210.852C455.263 216.208 458.573 219.241 458.702 219.343Z" fill="#A1616A"/>
<path opacity="0.1" d="M458.206 206.934C457.479 208.148 456.93 209.46 456.577 210.83C454.941 210.713 453.369 210.153 452.028 209.209C450.687 208.266 449.628 206.974 448.966 205.474C448.836 205.188 448.723 204.894 448.628 204.595C449.4 202.785 449.925 201.319 449.925 201.319C449.925 201.319 462.824 199.03 458.206 206.934Z" fill="black"/>
<path d="M466.223 201.545C466.214 203.607 465.498 205.604 464.195 207.203C462.892 208.801 461.081 209.905 459.063 210.33C457.045 210.756 454.942 210.477 453.105 209.54C451.267 208.603 449.807 207.064 448.966 205.181C448.457 204.036 448.196 202.797 448.199 201.545C448.211 199.379 449.001 197.29 450.425 195.659C451.849 194.028 453.813 192.963 455.957 192.66C458.102 192.357 460.283 192.836 462.104 194.008C463.925 195.181 465.263 196.97 465.873 199.047C466.105 199.86 466.223 200.7 466.223 201.545Z" fill="#A1616A"/>
<path opacity="0.1" d="M474.916 271.367C474.271 272.07 473.82 272.929 473.608 273.859C473.608 273.859 469.177 276.887 469.47 274.987C469.763 273.087 467.159 265.29 467.159 265.29L467.452 275.855C467.452 275.855 453.273 275.19 452.23 274.164C451.187 273.138 445.172 271.125 445.172 271.125C445.172 271.125 443.317 272.613 441.609 273.741C441.383 272.467 441.22 271.345 441.22 271.345L447.314 266.434L462.536 262.443L468.252 260.605L473.828 269.394C473.828 269.394 474.403 270.307 474.916 271.367Z" fill="black"/>
<path d="M475.378 270.533C474.2 271.272 473.755 273.267 473.755 273.267C473.755 273.267 469.324 276.295 469.617 274.395C469.91 272.495 467.328 264.721 467.328 264.721L467.627 275.286C467.627 275.286 453.442 274.62 452.405 273.594C451.368 272.568 445.313 270.567 445.313 270.567C445.313 270.567 440.07 274.778 439.111 274.406C438.153 274.034 440.803 266.874 440.803 266.874L443.531 224.919C443.531 224.919 442.793 212.437 443.903 211.991C444.074 211.924 444.231 211.824 444.366 211.698C445.099 211.044 445.318 209.714 445.38 208.592C445.454 207.267 447.224 207.927 447.224 207.927L446.192 209.257L455.348 214.822L455.427 214.872C455.793 214.684 456.169 214.517 456.554 214.371C457.366 214.06 458.443 213.767 459.148 214.06C459.541 214.262 459.876 214.564 460.117 214.934C460.641 215.718 461.06 216.567 461.363 217.46L464.689 223.069C464.689 223.069 466.381 230.534 466.381 230.827C466.381 231.12 466.899 237.919 467.508 238.658C468.117 239.396 468.692 243.089 468.472 244.2C468.252 245.31 468.839 249.443 468.839 249.443C471.28 251.438 472.531 258.232 472.531 258.232C472.531 258.232 476.376 265.843 476.67 266.728C476.963 267.613 476.562 269.795 475.378 270.533Z" fill="#F0FCF0"/>
<path opacity="0.1" d="M455.359 215.087C454.457 216.417 451.864 218.283 451.864 218.283L444.377 211.963C445.11 211.309 445.33 209.973 445.392 208.857C445.465 207.526 447.235 208.192 447.235 208.192L447.021 208.468C446.919 208.601 446.846 208.753 446.806 208.916C446.767 209.079 446.762 209.249 446.792 209.413C446.823 209.578 446.887 209.735 446.982 209.873C447.077 210.011 447.2 210.128 447.342 210.216L455.359 215.087Z" fill="black"/>
<path d="M455.359 214.788C454.457 216.118 451.864 217.99 451.864 217.99L444.377 211.664C445.11 211.01 445.33 209.68 445.392 208.558C445.465 207.233 447.235 207.893 447.235 207.893L447.021 208.169C446.919 208.302 446.846 208.454 446.806 208.617C446.767 208.78 446.762 208.95 446.792 209.114C446.823 209.279 446.887 209.436 446.982 209.574C447.077 209.712 447.2 209.829 447.342 209.917L455.359 214.788Z" fill="#444053"/>
<path opacity="0.1" d="M458.82 215.785C457.85 216.941 456.48 218.255 456.565 217.595C456.65 216.935 455.748 215.487 455.189 214.838C456.067 214.562 457.012 214.588 457.873 214.912C458.259 215.117 458.585 215.418 458.82 215.785Z" fill="black"/>
<path d="M458.967 215.34C457.997 216.501 456.627 217.809 456.712 217.155C456.796 216.501 455.985 215.43 455.421 214.782C456.233 214.472 457.31 214.179 458.014 214.472C458.403 214.672 458.731 214.972 458.967 215.34Z" fill="#444053"/>
<path opacity="0.1" d="M444.382 212.031C444.382 212.031 444.478 211.146 443.198 212.674C442.124 213.794 440.889 214.748 439.534 215.504C439.534 215.504 434.071 219.349 433.772 221.141C433.473 222.934 431.703 230.596 432.644 233.155C433.586 235.715 440.723 247.982 440.723 247.982C440.723 247.982 438.851 250.198 439.291 252.808C439.731 255.418 440.278 259.01 440.03 259.799C439.782 260.588 440.328 262.556 439.466 263.244C438.603 263.931 437.746 265.115 440.357 266.694C440.357 266.694 440.847 268.024 440.402 268.318C439.956 268.611 446.953 271.666 449.71 270.043C452.466 268.419 457.444 255.419 457.54 252.509C457.636 249.6 456.012 240.005 455.127 237.739C454.242 235.472 451.581 226.655 450.448 224.687C449.315 222.72 444.382 212.031 444.382 212.031Z" fill="black"/>
<path d="M444.084 212.031C444.084 212.031 444.185 211.146 442.905 212.674C441.824 213.804 440.58 214.766 439.213 215.526C439.213 215.526 433.744 219.371 433.451 221.164C433.158 222.957 431.382 230.618 432.323 233.178C433.265 235.737 440.397 248.005 440.397 248.005C440.397 248.005 438.525 250.221 438.97 252.831C439.416 255.441 439.957 259.032 439.709 259.822C439.461 260.611 440.002 262.578 439.145 263.266C438.288 263.954 437.42 265.138 440.03 266.716C440.03 266.716 440.526 268.047 440.081 268.34C439.635 268.633 446.632 271.689 449.389 270.065C452.146 268.442 457.118 255.441 457.219 252.532C457.321 249.623 455.692 240.028 454.806 237.761C453.921 235.495 451.26 226.678 450.127 224.71C448.994 222.742 444.084 212.031 444.084 212.031Z" fill="#0A1527"/>
<path opacity="0.1" d="M442.116 220.403C442.116 220.403 446.35 225.082 446.204 228.183C446.204 228.183 446.254 223.16 442.116 220.403Z" fill="black"/>
<path opacity="0.1" d="M456.408 213.705C456.408 213.705 459.153 212.014 462.609 216.315C462.609 216.315 465.118 217.742 465.857 218.091C466.595 218.441 467.435 227.591 467.435 227.591C467.435 227.591 469.059 231.537 468.613 233.792C468.168 236.047 469.899 243.839 469.899 243.839C469.899 243.839 472.751 257.826 472.656 258.215C472.56 258.604 469.747 253.834 469.797 251.449C469.848 249.065 467.435 241.696 467.091 241.257C466.747 240.817 464.379 228.155 464.379 228.155C464.379 228.155 462.463 222.787 461.228 221.017C459.993 219.247 458.471 215.893 457.845 215.301C457.386 214.904 456.874 214.574 456.323 214.32L456.408 213.705Z" fill="black"/>
<path d="M456.374 213.705C456.374 213.705 459.452 212.014 462.897 216.315C462.897 216.315 465.411 217.742 466.15 218.091C466.888 218.441 467.722 227.591 467.722 227.591C467.722 227.591 469.346 231.537 468.906 233.792C468.467 236.047 470.186 243.839 470.186 243.839C470.186 243.839 473.044 257.826 472.943 258.215C472.841 258.604 470.04 253.834 470.085 251.449C470.13 249.065 467.722 241.696 467.379 241.257C467.035 240.817 464.672 228.155 464.672 228.155C464.672 228.155 462.75 222.833 461.521 221.045C460.292 219.258 458.759 215.921 458.138 215.329C457.591 214.902 456.975 214.57 456.317 214.348L456.374 213.705Z" fill="#0A1527"/>
<path d="M469.893 244.481C469.893 244.481 475.75 240.642 478.58 242.536C481.41 244.43 486.045 247.12 481.489 249.065C476.934 251.01 470.631 250.638 470.631 250.638L469.893 244.481Z" fill="#A1616A"/>
<path opacity="0.1" d="M465.817 281.538C464.944 283.415 464.222 292.813 463.731 295.812C463.032 294.611 462.187 293.18 461.899 292.728C461.239 291.302 460.665 289.837 460.18 288.342C460.743 286.989 462.271 283.111 462.271 281.69C462.271 279.954 465.09 277.772 465.09 277.772C465.594 278.242 465.936 278.86 466.067 279.536C466.197 280.213 466.11 280.914 465.817 281.538Z" fill="black"/>
<path opacity="0.1" d="M465.873 199.047C465.732 199.12 465.585 199.181 465.434 199.227C464.74 199.414 464.064 198.946 463.449 198.574C462.835 198.201 461.983 197.925 461.448 198.41C460.754 199.041 461.256 200.389 460.54 200.998C460.089 201.387 459.373 201.251 458.849 201.561C458.325 201.872 458.195 202.576 458.065 203.174C457.936 203.771 457.687 204.459 457.096 204.634C456.504 204.809 455.968 204.425 455.404 204.442C455.286 204.442 455.145 204.442 455.066 204.375C455.013 204.297 454.993 204.202 455.01 204.11C455.08 203.392 455.015 202.667 454.818 201.973C454.715 201.627 454.522 201.314 454.258 201.066C453.995 200.819 453.67 200.645 453.318 200.564C452.281 200.406 451.407 201.313 450.798 202.17C450.159 203.072 449.577 204.014 449.056 204.989C449.028 205.04 449 205.108 448.966 205.187C448.457 204.042 448.196 202.803 448.199 201.55C448.211 199.385 449.001 197.295 450.425 195.664C451.849 194.033 453.813 192.969 455.957 192.666C458.102 192.363 460.283 192.841 462.104 194.014C463.925 195.187 465.263 196.975 465.873 199.053V199.047Z" fill="black"/>
<path d="M450.81 202.03C451.419 201.173 452.293 200.265 453.33 200.423C453.681 200.505 454.005 200.677 454.268 200.924C454.531 201.17 454.725 201.482 454.83 201.827C455.027 202.521 455.09 203.246 455.016 203.963C455.003 204.058 455.025 204.154 455.078 204.234C455.157 204.324 455.298 204.307 455.416 204.302C455.98 204.302 456.572 204.657 457.107 204.493C457.643 204.33 457.953 203.631 458.077 203.033C458.201 202.436 458.342 201.748 458.861 201.421C459.379 201.094 460.084 201.235 460.552 200.857C461.268 200.248 460.766 198.895 461.46 198.269C461.995 197.785 462.847 198.061 463.461 198.433C464.076 198.805 464.752 199.273 465.445 199.087C465.675 199.005 465.899 198.909 466.116 198.799C467.216 198.382 468.636 199.092 469.533 198.343C469.86 198.014 470.095 197.606 470.215 197.159C470.464 196.558 470.63 195.927 470.711 195.281C470.792 194.627 470.614 193.968 470.215 193.443C469.651 192.756 468.636 192.581 467.887 192.074C467.279 191.595 466.774 190.999 466.404 190.32C466.034 189.641 465.545 189.034 464.961 188.527C464.664 188.278 464.305 188.115 463.923 188.055C463.54 187.996 463.148 188.042 462.79 188.189C462.575 188.341 462.334 188.453 462.08 188.522C461.803 188.528 461.531 188.454 461.296 188.308C458.737 187.101 455.754 187.315 452.947 187.676C451.814 187.765 450.703 188.034 449.654 188.471C449.131 188.692 448.662 189.024 448.278 189.443C447.895 189.863 447.607 190.36 447.433 190.901C447.208 191.769 447.382 192.711 447.106 193.568C446.92 194.131 446.542 194.644 446.317 195.214C445.719 196.77 446.435 198.484 446.74 200.124C447.072 201.917 446.903 203.856 447.664 205.553C447.816 205.886 447.98 206.467 448.358 206.247C448.634 206.083 448.921 205.119 449.062 204.843C449.587 203.87 450.171 202.931 450.81 202.03Z" fill="#3F3D56"/>
<path opacity="0.1" d="M434.584 230.894L433.254 234.672C433.254 234.672 436.405 246.392 437.882 248.856C439.36 251.32 441.524 254.494 441.524 254.494C443.998 255.604 446.747 255.946 449.417 255.475C453.651 254.64 466.009 252.425 466.009 252.425C466.301 252.478 466.602 252.45 466.88 252.346C467.158 252.242 467.402 252.065 467.587 251.833C468.151 251.044 470.936 250.649 470.936 250.649C470.936 250.649 474.184 245.925 470.198 243.951C470.198 243.951 469.707 245.039 467.587 244.295C465.468 243.551 464.831 244.887 464.831 244.887C464.831 244.887 461.38 245.581 459.464 245.333C457.547 245.085 452.766 244.989 452.27 244.594C452.208 244.539 452.137 244.497 452.059 244.47C451.981 244.443 451.899 244.431 451.817 244.436C451.735 244.44 451.654 244.461 451.58 244.497C451.506 244.533 451.439 244.583 451.385 244.645C450.814 244.439 450.282 244.138 449.812 243.754C449.417 243.314 448.876 244.25 448.876 244.25C448.876 244.25 448.183 243.856 448.38 243.365C448.577 242.875 447.743 240.997 447.743 240.997C447.52 240.281 447.47 239.521 447.596 238.782C447.839 237.795 446.362 234.271 446.362 234.271C446.344 233.673 446.41 233.075 446.559 232.496C446.807 231.61 444.687 229.835 444.687 229.835C444.687 229.835 442.618 219.794 438.238 223.069C433.857 226.345 434.584 230.894 434.584 230.894Z" fill="black"/>
<path d="M434.286 230.894L432.955 234.672C432.955 234.672 436.107 246.392 437.584 248.856C439.061 251.32 441.231 254.494 441.231 254.494C443.704 255.606 446.454 255.948 449.124 255.475C453.364 254.64 465.721 252.425 465.721 252.425C466.013 252.478 466.314 252.45 466.592 252.346C466.87 252.242 467.115 252.065 467.3 251.833C467.864 251.044 470.649 250.649 470.649 250.649C470.649 250.649 473.896 245.925 469.91 243.951C469.91 243.951 469.414 245.039 467.3 244.295C465.186 243.551 464.537 244.887 464.537 244.887C464.537 244.887 461.093 245.581 459.17 245.333C457.248 245.085 452.473 244.989 451.982 244.594C451.921 244.539 451.849 244.497 451.772 244.47C451.694 244.443 451.611 244.431 451.529 244.436C451.447 244.44 451.366 244.461 451.292 244.497C451.218 244.533 451.152 244.583 451.097 244.645C450.524 244.439 449.991 244.138 449.519 243.754C449.124 243.314 448.583 244.25 448.583 244.25C448.583 244.25 447.895 243.856 448.092 243.365C448.29 242.875 447.45 240.997 447.45 240.997C447.23 240.28 447.18 239.522 447.303 238.782C447.551 237.795 446.074 234.271 446.074 234.271C446.053 233.673 446.119 233.075 446.271 232.496C446.514 231.61 444.4 229.835 444.4 229.835C444.4 229.835 442.331 219.794 437.95 223.069C433.57 226.345 434.286 230.894 434.286 230.894Z" fill="#0A1527"/>
<path opacity="0.1" d="M446.452 242.316C446.452 242.316 441.626 243.303 443.25 244.137C444.874 244.972 446.452 242.316 446.452 242.316Z" fill="black"/>
<g opacity="0.1">
<path d="M454.818 200.992C454.716 200.646 454.523 200.333 454.259 200.086C453.996 199.84 453.671 199.668 453.319 199.588C452.281 199.43 451.408 200.338 450.799 201.189C450.159 202.093 449.576 203.034 449.051 204.008C448.893 204.301 448.623 205.249 448.346 205.412C447.969 205.632 447.783 205.046 447.653 204.713C446.892 203.022 447.089 201.077 446.728 199.284C446.462 198.241 446.249 197.186 446.091 196.121C445.979 197.406 446.486 198.76 446.728 200.067C447.061 201.86 446.892 203.8 447.653 205.497C447.805 205.829 447.969 206.41 448.346 206.19C448.623 206.027 448.91 205.062 449.051 204.792C449.575 203.817 450.158 202.875 450.799 201.973C451.408 201.116 452.281 200.208 453.319 200.372C453.671 200.451 453.996 200.623 454.259 200.87C454.523 201.117 454.716 201.429 454.818 201.776C454.94 202.14 455.006 202.52 455.016 202.903C455.072 202.259 455.005 201.611 454.818 200.992Z" fill="black"/>
<path d="M470.204 196.335C470.085 196.782 469.85 197.188 469.522 197.514C468.626 198.263 467.205 197.559 466.106 197.976C465.88 198.06 465.672 198.196 465.435 198.263C464.741 198.444 464.065 197.982 463.45 197.609C462.836 197.237 461.984 196.955 461.449 197.44C460.755 198.072 461.257 199.419 460.541 200.028C460.09 200.417 459.374 200.282 458.85 200.592C458.326 200.902 458.196 201.601 458.066 202.199C457.937 202.796 457.689 203.484 457.097 203.659C456.505 203.833 455.969 203.45 455.405 203.473C455.287 203.473 455.146 203.473 455.067 203.405C455.048 203.385 455.034 203.359 455.028 203.332C455.028 203.529 455.028 203.726 455.028 203.924C455.016 204.017 455.038 204.111 455.09 204.189C455.169 204.279 455.309 204.262 455.428 204.262C455.992 204.262 456.584 204.611 457.119 204.448C457.655 204.284 457.965 203.591 458.089 202.988C458.213 202.385 458.354 201.708 458.872 201.381C459.391 201.054 460.096 201.195 460.564 200.817C461.28 200.208 460.778 198.861 461.471 198.23C462.007 197.745 462.858 198.021 463.473 198.393C464.087 198.765 464.764 199.233 465.457 199.047C465.686 198.965 465.91 198.871 466.128 198.765C467.228 198.348 468.648 199.053 469.545 198.303C469.871 197.977 470.107 197.57 470.227 197.125C470.475 196.522 470.641 195.888 470.723 195.242C470.748 195.022 470.748 194.801 470.723 194.582C470.615 195.184 470.441 195.772 470.204 196.335Z" fill="black"/>
</g>
<path opacity="0.1" d="M456.126 81.4282C460.881 81.4282 464.735 77.5739 464.735 72.8194C464.735 68.065 460.881 64.2107 456.126 64.2107C451.372 64.2107 447.518 68.065 447.518 72.8194C447.518 77.5739 451.372 81.4282 456.126 81.4282Z" fill="#0A1527"/>
<path opacity="0.1" d="M486.925 48.8649C494.895 48.8649 501.357 42.4033 501.357 34.4325C501.357 26.4616 494.895 20 486.925 20C478.954 20 472.492 26.4616 472.492 34.4325C472.492 42.4033 478.954 48.8649 486.925 48.8649Z" fill="#0A1527"/>
<path opacity="0.1" d="M467.824 118.896C475.795 118.896 482.257 112.435 482.257 104.464C482.257 96.4929 475.795 90.0312 467.824 90.0312C459.853 90.0312 453.392 96.4929 453.392 104.464C453.392 112.435 459.853 118.896 467.824 118.896Z" fill="#0A1527"/>
<path opacity="0.1" d="M466.922 179.682C473.436 179.682 478.716 174.401 478.716 167.888C478.716 161.374 473.436 156.094 466.922 156.094C460.408 156.094 455.128 161.374 455.128 167.888C455.128 174.401 460.408 179.682 466.922 179.682Z" fill="#0A1527"/>
<path opacity="0.1" d="M583.622 256.354C590.136 256.354 595.416 251.074 595.416 244.56C595.416 238.046 590.136 232.766 583.622 232.766C577.109 232.766 571.828 238.046 571.828 244.56C571.828 251.074 577.109 256.354 583.622 256.354Z" fill="#0A1527"/>
<path d="M371.882 354.072C409.09 354.072 439.252 348.015 439.252 340.542C439.252 333.069 409.09 327.011 371.882 327.011C334.674 327.011 304.512 333.069 304.512 340.542C304.512 348.015 334.674 354.072 371.882 354.072Z" stroke="#F0FCF0" stroke-width="0.563768" stroke-miterlimit="10"/>
<defs>
<linearGradient id="paint0_linear_32_1350" x1="458.499" y1="355.82" x2="458.499" y2="186.458" gradientUnits="userSpaceOnUse">
<stop stop-color="#808080" stop-opacity="0.25"/>
<stop offset="0.54" stop-color="#808080" stop-opacity="0.12"/>
<stop offset="1" stop-color="#808080" stop-opacity="0.1"/>
</linearGradient>
<linearGradient id="paint1_linear_32_1350" x1="581.457" y1="321.661" x2="532.145" y2="321.661" gradientUnits="userSpaceOnUse">
<stop stop-color="#808080" stop-opacity="0.25"/>
<stop offset="0.54" stop-color="#808080" stop-opacity="0.12"/>
<stop offset="1" stop-color="#808080" stop-opacity="0.1"/>
</linearGradient>
</defs>
</svg>
