<svg width="1058" height="401" viewBox="0 0 1058 401" fill="none" xmlns="http://www.w3.org/2000/svg">
<path d="M687.655 296.41L704.443 299.108C710.125 292.032 714.042 283.635 715.854 274.647C703.579 284.983 684.911 279.491 670.026 285.133C665.397 286.93 661.22 289.775 657.805 293.457C654.39 297.14 651.824 301.566 650.298 306.407L642.094 315.486C649.52 318.51 657.496 319.842 665.471 319.39C673.447 318.939 681.232 316.714 688.291 312.87C692.23 310.673 695.885 307.974 699.169 304.838C693.295 301.033 687.655 296.41 687.655 296.41Z" fill="#0A1527"/>
<path d="M681.695 268.794L697.891 263.508C699.909 254.567 699.774 245.255 697.499 236.38C690.993 251.261 671.904 254.909 661.028 266.787C657.663 270.519 655.158 274.981 653.698 279.844C652.238 284.706 651.861 289.845 652.594 294.878L649.188 306.767C657.146 306.067 664.862 303.601 671.804 299.538C678.747 295.476 684.751 289.913 689.402 283.234C691.975 279.461 694.076 275.369 695.655 271.055C688.748 270.345 681.695 268.794 681.695 268.794Z" fill="#0A1527"/>
<path d="M715.944 320.986C715.944 321.075 715.928 321.163 715.895 321.246C715.862 321.328 715.813 321.403 715.752 321.466C715.69 321.529 715.618 321.579 715.538 321.613C715.458 321.647 715.372 321.664 715.285 321.664H342.385C342.21 321.664 342.042 321.592 341.919 321.465C341.795 321.338 341.726 321.166 341.726 320.986C341.726 320.806 341.795 320.634 341.919 320.507C342.042 320.38 342.21 320.308 342.385 320.308H715.285C715.372 320.308 715.458 320.325 715.538 320.359C715.618 320.393 715.69 320.443 715.752 320.506C715.813 320.569 715.862 320.644 715.895 320.726C715.928 320.809 715.944 320.897 715.944 320.986Z" fill="#F0FCF0"/>
<path d="M496.248 292.085C562.013 292.085 615.326 237.249 615.326 169.606C615.326 101.962 562.013 47.126 496.248 47.126C430.484 47.126 377.171 101.962 377.171 169.606C377.171 237.249 430.484 292.085 496.248 292.085Z" fill="#F0FCF0"/>
<path d="M598.71 169.606C598.722 186.05 594.987 202.269 587.805 216.961C580.623 231.653 570.194 244.41 557.354 254.208C556.496 254.869 555.621 255.512 554.74 256.139C537.57 268.415 517.159 274.995 496.248 274.995C475.337 274.995 454.926 268.415 437.756 256.139C436.875 255.512 436 254.869 435.142 254.208C422.311 244.401 411.888 231.643 404.707 216.953C397.526 202.263 393.786 186.048 393.786 169.606C393.786 153.163 397.526 136.949 404.707 122.259C411.888 107.569 422.311 94.8103 435.142 85.0037C436 84.3428 436.875 83.6991 437.756 83.0725C454.926 70.7961 475.337 64.2163 496.248 64.2163C517.159 64.2163 537.57 70.7961 554.74 83.0725C555.621 83.6991 556.496 84.3428 557.354 85.0037C570.194 94.8017 580.623 107.558 587.805 122.25C594.987 136.942 598.722 153.161 598.71 169.606Z" fill="white"/>
<path d="M496.248 265.88C547.942 265.88 589.848 222.776 589.848 169.605C589.848 116.434 547.942 73.3308 496.248 73.3308C444.554 73.3308 402.647 116.434 402.647 169.605C402.647 222.776 444.554 265.88 496.248 265.88Z" fill="#0A1527"/>
<path opacity="0.2" d="M496.492 73.6001C495.073 73.6001 493.663 73.6383 492.26 73.7025C515.916 75.8407 537.899 87.1485 553.753 105.335C569.607 123.521 578.147 147.226 577.643 171.648C577.139 196.069 567.628 219.38 551.039 236.858C534.449 254.336 512.02 264.674 488.296 265.778C490.997 266.019 493.73 266.149 496.492 266.149C521.316 266.149 545.124 256.006 562.678 237.951C580.231 219.896 590.092 195.408 590.092 169.875C590.092 144.341 580.231 119.853 562.678 101.798C545.124 83.7433 521.316 73.6001 496.492 73.6001Z" fill="black"/>
<path d="M496.526 66.4946C495.718 66.4961 494.944 66.8267 494.373 67.4139C493.802 68.0012 493.481 68.7973 493.479 69.6278V83.3C493.479 84.1309 493.8 84.9279 494.372 85.5155C494.943 86.1031 495.718 86.4332 496.526 86.4332C497.334 86.4332 498.108 86.1031 498.68 85.5155C499.251 84.9279 499.572 84.1309 499.572 83.3V69.6278C499.57 68.7973 499.249 68.0012 498.678 67.4139C498.107 66.8267 497.333 66.4961 496.526 66.4946Z" fill="white"/>
<path d="M557.354 85.0035C556.496 84.3427 555.621 83.6989 554.74 83.0723C554.212 83.0369 553.684 83.1438 553.208 83.3826C552.732 83.6214 552.325 83.9837 552.026 84.4338L544.544 95.7304C544.089 96.4171 543.918 97.2614 544.069 98.0777C544.22 98.8939 544.679 99.6151 545.347 100.083C546.015 100.55 546.835 100.726 547.629 100.571C548.423 100.416 549.124 99.9434 549.578 99.2567L557.061 87.9601C557.346 87.5315 557.522 87.0365 557.573 86.5202C557.624 86.0038 557.549 85.4824 557.354 85.0035Z" fill="white"/>
<path d="M591.349 136.513C591.198 136.132 590.977 135.786 590.696 135.493C590.415 135.201 590.081 134.968 589.713 134.808C589.344 134.648 588.949 134.565 588.549 134.562C588.15 134.559 587.754 134.638 587.383 134.793L575.066 139.937C574.318 140.25 573.722 140.856 573.408 141.621C573.095 142.386 573.089 143.248 573.393 144.018C573.697 144.787 574.285 145.401 575.029 145.724C575.772 146.047 576.61 146.054 577.359 145.742L589.676 140.598C590.424 140.283 591.019 139.676 591.333 138.911C591.646 138.145 591.652 137.283 591.349 136.513Z" fill="white"/>
<path d="M447.953 95.7304L440.47 84.4338C440.172 83.9837 439.765 83.6214 439.289 83.3826C438.813 83.1438 438.285 83.0369 437.756 83.0723C436.876 83.6989 436.001 84.3427 435.142 85.0035C434.948 85.4824 434.873 86.0038 434.924 86.5202C434.975 87.0365 435.151 87.5315 435.436 87.9601L442.918 99.2567C443.373 99.9434 444.074 100.416 444.868 100.571C445.661 100.726 446.482 100.55 447.15 100.083C447.817 99.6151 448.277 98.8939 448.428 98.0777C448.578 97.2614 448.407 96.4171 447.953 95.7304Z" fill="white"/>
<path d="M417.429 139.937L405.112 134.793C404.363 134.48 403.525 134.486 402.781 134.81C402.037 135.133 401.448 135.747 401.144 136.516C400.84 137.286 400.846 138.148 401.16 138.914C401.474 139.679 402.071 140.285 402.819 140.598L415.136 145.742C415.885 146.054 416.723 146.047 417.466 145.724C418.21 145.401 418.798 144.787 419.102 144.018C419.406 143.248 419.4 142.386 419.087 141.621C418.773 140.856 418.177 140.25 417.429 139.937Z" fill="white"/>
<path d="M496.526 252.778C495.718 252.779 494.944 253.11 494.373 253.697C493.802 254.284 493.481 255.081 493.479 255.911V269.583C493.479 270.414 493.8 271.211 494.372 271.799C494.943 272.386 495.718 272.716 496.526 272.716C497.334 272.716 498.108 272.386 498.68 271.799C499.251 271.211 499.572 270.414 499.572 269.583V255.911C499.57 255.081 499.249 254.284 498.678 253.697C498.107 253.11 497.333 252.779 496.526 252.778Z" fill="white"/>
<path d="M557.061 251.251L549.578 239.954C549.353 239.614 549.065 239.323 548.731 239.098C548.396 238.872 548.022 238.717 547.629 238.64C547.236 238.563 546.832 238.567 546.441 238.651C546.049 238.734 545.678 238.897 545.347 239.128C545.016 239.36 544.733 239.656 544.514 240C544.295 240.344 544.144 240.729 544.069 241.133C543.994 241.538 543.998 241.953 544.079 242.356C544.161 242.758 544.319 243.141 544.544 243.481L552.026 254.777C552.325 255.227 552.732 255.59 553.208 255.828C553.684 256.067 554.212 256.174 554.74 256.139C555.621 255.512 556.496 254.868 557.354 254.208C557.549 253.729 557.624 253.207 557.573 252.691C557.522 252.174 557.346 251.679 557.061 251.251Z" fill="white"/>
<path d="M589.676 198.613L577.359 193.469C576.61 193.157 575.772 193.163 575.028 193.486C574.284 193.809 573.695 194.423 573.391 195.193C573.087 195.962 573.093 196.825 573.407 197.59C573.721 198.356 574.318 198.961 575.066 199.274L587.383 204.418C588.132 204.73 588.97 204.724 589.713 204.4C590.457 204.077 591.045 203.463 591.349 202.694C591.653 201.925 591.648 201.063 591.334 200.298C591.02 199.532 590.424 198.927 589.676 198.613Z" fill="white"/>
<path d="M447.15 239.128C446.482 238.661 445.661 238.485 444.868 238.64C444.074 238.795 443.373 239.268 442.918 239.954L435.436 251.251C435.151 251.679 434.975 252.174 434.924 252.691C434.873 253.207 434.948 253.729 435.142 254.207C436.001 254.868 436.876 255.512 437.756 256.139C438.285 256.174 438.813 256.067 439.289 255.828C439.765 255.59 440.172 255.227 440.47 254.777L447.953 243.481C448.178 243.141 448.336 242.758 448.417 242.355C448.499 241.953 448.502 241.537 448.428 241.133C448.353 240.729 448.202 240.344 447.983 240C447.763 239.656 447.48 239.36 447.15 239.128Z" fill="white"/>
<path d="M419.103 195.189C418.952 194.809 418.73 194.462 418.45 194.169C418.169 193.877 417.835 193.644 417.467 193.484C417.098 193.324 416.703 193.241 416.303 193.238C415.904 193.236 415.507 193.314 415.137 193.469L402.82 198.613C402.072 198.926 401.476 199.532 401.162 200.297C400.848 201.062 400.843 201.924 401.147 202.694C401.451 203.463 402.039 204.077 402.783 204.4C403.526 204.724 404.364 204.73 405.113 204.418L417.43 199.274C418.178 198.959 418.773 198.352 419.087 197.587C419.4 196.821 419.406 195.959 419.103 195.189Z" fill="white"/>
<path d="M500.477 168.051C500.759 169.764 500.368 171.521 499.391 172.938C498.414 174.354 496.931 175.315 495.266 175.608L441.212 185.065C440.387 185.21 439.543 185.185 438.728 184.994C437.912 184.803 437.141 184.448 436.459 183.95C435.777 183.453 435.196 182.822 434.751 182.093C434.306 181.365 434.005 180.553 433.865 179.705C433.724 178.857 433.748 177.989 433.934 177.15C434.12 176.311 434.465 175.518 434.948 174.817C435.432 174.115 436.046 173.518 436.754 173.06C437.462 172.602 438.251 172.293 439.076 172.148L493.13 162.691C494.795 162.402 496.504 162.804 497.881 163.808C499.259 164.813 500.192 166.339 500.477 168.051Z" fill="#3F3D56"/>
<path d="M557.368 229.65C556.591 230.453 555.537 230.907 554.436 230.911C553.334 230.916 552.276 230.471 551.494 229.674L493.305 170.292C492.524 169.493 492.083 168.409 492.079 167.276C492.075 166.144 492.509 165.056 493.284 164.252C494.06 163.448 495.114 162.994 496.215 162.989C497.316 162.984 498.374 163.429 499.156 164.226L557.345 223.608C558.126 224.407 558.567 225.491 558.571 226.624C558.576 227.757 558.143 228.845 557.368 229.65Z" fill="#3F3D56"/>
<path d="M496.248 177.011C500.224 177.011 503.448 173.696 503.448 169.605C503.448 165.515 500.224 162.2 496.248 162.2C492.271 162.2 489.048 165.515 489.048 169.605C489.048 173.696 492.271 177.011 496.248 177.011Z" fill="#F0FCF0"/>
<path d="M446.655 41.1891C435.603 59.0612 418.74 70.9219 397.944 78.7137C397.533 79.0303 397.066 79.2605 396.568 79.3912C396.071 79.5219 395.553 79.5506 395.045 79.4756C394.537 79.4005 394.048 79.2233 393.606 78.9539C393.165 78.6846 392.779 78.3284 392.471 77.9057C381.175 62.3921 383.726 40.2201 398.634 28.3659C402.239 25.5049 406.36 23.4089 410.758 22.1995C415.156 20.9901 419.745 20.6914 424.256 21.3208C428.768 21.9501 433.113 23.495 437.039 25.8657C440.965 28.2364 444.395 31.3857 447.128 35.1308L447.44 35.5599C447.748 35.9826 447.972 36.4635 448.099 36.9751C448.226 37.4868 448.254 38.0191 448.181 38.5419C448.108 39.0646 447.936 39.5674 447.674 40.0216C447.412 40.4759 447.066 40.8726 446.655 41.1891Z" fill="#F0FCF0"/>
<path d="M545.368 35.1308C548.102 31.3857 551.531 28.2364 555.457 25.8657C559.383 23.495 563.729 21.9501 568.24 21.3208C572.752 20.6914 577.34 20.9901 581.738 22.1995C586.137 23.4089 590.258 25.5049 593.862 28.3659C608.771 40.2201 611.321 62.3921 600.025 77.9057C599.717 78.3284 599.332 78.6845 598.89 78.9539C598.448 79.2233 597.96 79.4005 597.451 79.4755C596.943 79.5506 596.425 79.5219 595.928 79.3912C595.431 79.2605 594.963 79.0303 594.552 78.7137C575.247 71.1112 559.415 57.9551 545.841 41.1891C545.011 40.5498 544.462 39.5975 544.315 38.5418C544.168 37.4862 544.434 36.4135 545.056 35.5599L545.368 35.1308Z" fill="#F0FCF0"/>
<path d="M540.524 275.718C539.82 276.124 539.302 276.802 539.083 277.601C538.863 278.4 538.961 279.256 539.354 279.982L556.934 312.295C557.329 313.02 557.987 313.554 558.764 313.78C559.542 314.006 560.374 313.904 561.079 313.499C561.784 313.093 562.304 312.416 562.523 311.616C562.743 310.817 562.645 309.96 562.25 309.235L544.67 276.922C544.275 276.198 543.616 275.664 542.839 275.439C542.062 275.213 541.23 275.313 540.524 275.718Z" fill="#F0FCF0"/>
<path d="M447.825 276.921L430.245 309.235C429.851 309.96 429.753 310.816 429.972 311.616C430.192 312.415 430.711 313.093 431.416 313.498C432.121 313.904 432.954 314.005 433.731 313.78C434.508 313.554 435.167 313.02 435.562 312.295L453.142 279.982C453.337 279.622 453.462 279.227 453.509 278.819C453.556 278.41 453.524 277.996 453.415 277.6C453.307 277.204 453.123 276.834 452.875 276.51C452.628 276.187 452.32 275.918 451.971 275.717C451.622 275.516 451.238 275.387 450.841 275.339C450.443 275.291 450.041 275.324 449.656 275.436C449.271 275.548 448.911 275.736 448.597 275.991C448.283 276.246 448.02 276.562 447.825 276.921Z" fill="#F0FCF0"/>
<path d="M560.495 320.569C565.695 320.569 569.91 316.233 569.91 310.885C569.91 305.536 565.695 301.2 560.495 301.2C555.295 301.2 551.079 305.536 551.079 310.885C551.079 316.233 555.295 320.569 560.495 320.569Z" fill="#F0FCF0"/>
<path d="M567.141 72.7612C572.341 72.7612 576.556 68.4253 576.556 63.0768C576.556 57.7282 572.341 53.3923 567.141 53.3923C561.941 53.3923 557.726 57.7282 557.726 63.0768C557.726 68.4253 561.941 72.7612 567.141 72.7612Z" fill="#F0FCF0"/>
<path d="M495.695 49.9743C500.895 49.9743 505.11 45.6385 505.11 40.2899C505.11 34.9413 500.895 30.6055 495.695 30.6055C490.495 30.6055 486.279 34.9413 486.279 40.2899C486.279 45.6385 490.495 49.9743 495.695 49.9743Z" fill="#F0FCF0"/>
<path d="M427.571 71.6218C432.771 71.6218 436.986 67.2859 436.986 61.9374C436.986 56.5888 432.771 52.2529 427.571 52.2529C422.371 52.2529 418.155 56.5888 418.155 61.9374C418.155 67.2859 422.371 71.6218 427.571 71.6218Z" fill="#F0FCF0"/>
<path d="M433.663 320.569C438.863 320.569 443.079 316.233 443.079 310.885C443.079 305.536 438.863 301.2 433.663 301.2C428.463 301.2 424.248 305.536 424.248 310.885C424.248 316.233 428.463 320.569 433.663 320.569Z" fill="#F0FCF0"/>
<path d="M553.109 224.203C553.48 224.801 553.974 225.308 554.556 225.688C555.138 226.068 555.794 226.312 556.478 226.403C557.162 226.494 557.857 226.43 558.514 226.215C559.171 226 559.774 225.639 560.281 225.159L575.056 233.301L574.263 224.379L560.355 218.015C559.513 217.192 558.407 216.716 557.247 216.676C556.087 216.636 554.953 217.036 554.059 217.799C553.166 218.561 552.576 219.635 552.401 220.815C552.226 221.996 552.478 223.201 553.109 224.203Z" fill="#FFB7B7"/>
<path d="M563.874 227.317L569.664 219.097L597.555 232.659L632.263 225.96C633.979 225.629 635.744 225.691 637.434 226.141C639.124 226.59 640.697 227.417 642.042 228.562C643.386 229.707 644.469 231.143 645.213 232.767C645.957 234.391 646.345 236.164 646.348 237.959C646.35 241.202 645.102 244.314 642.877 246.611C640.651 248.908 637.631 250.204 634.478 250.213L594.703 250.289L563.874 227.317Z" fill="#F0FCF0"/>
<path d="M554.957 369.295L549.099 366.413L557.145 341.229L565.791 345.482L554.957 369.295Z" fill="#FFB7B7"/>
<path d="M594.228 365.235C593.802 365.509 593.376 365.779 592.946 366.049C592.089 366.589 591.224 367.12 590.36 367.642C589.925 367.903 589.486 368.164 589.052 368.421V368.434L589.026 368.439L589.017 368.443L588.355 368.611L587.404 366.027L586.965 364.836L586.345 363.15L585.209 360.066L579.229 343.824L588.527 341.465L588.875 342.93H588.879L589.052 343.655L592.3 357.207L592.963 359.977L592.984 360.061L593.384 361.716L593.729 363.15L594.112 364.752L594.228 365.235Z" fill="#FFB7B7"/>
<path d="M649.695 308.196C649.105 309.17 648.503 310.139 647.896 311.099C646.769 312.887 645.611 314.649 644.424 316.384C644.424 316.388 644.419 316.388 644.415 316.392C643.722 317.052 642.957 317.627 642.135 318.105C642.1 318.132 642.062 318.149 642.027 318.171C641.422 318.516 640.777 318.782 640.108 318.964C639.867 319.026 639.622 319.088 639.381 319.15C638.512 319.362 637.651 319.543 636.795 319.703C635.272 319.982 633.766 320.181 632.269 320.305C632.148 320.318 632.028 320.327 631.907 320.336C625.75 320.8 619.756 320.052 613.5 318.826C610.411 318.225 607.257 317.503 603.991 316.755C602.924 316.507 601.853 316.264 600.769 316.021C600.687 316.003 600.601 315.981 600.515 315.963C598.966 315.613 597.391 315.268 595.777 314.927C593.747 314.498 591.651 314.082 589.474 313.688L589.629 316.844C589.758 319.271 590.248 321.664 591.083 323.938C592.013 326.735 592.748 328.948 591.195 333.555L590.446 335.785C590.835 336.893 590.968 338.078 590.836 339.248C590.703 340.417 590.31 341.539 589.685 342.526L589.534 342.76L595.777 359.007L596.182 360.06H592.985L589.052 360.064H582.387L572.771 340.22L572.311 339.273V339.224L573.304 301.089C573.317 300.752 573.343 300.411 573.386 300.075C573.562 298.546 574.031 297.068 574.768 295.728C575.504 294.387 576.493 293.211 577.676 292.268C578.81 291.357 580.108 290.686 581.496 290.296C582.884 289.905 584.334 289.803 585.761 289.993L589.052 290.432L595.777 291.326L600.515 291.958L600.609 291.972L614.58 293.83L615.583 289.626L615.768 289.555L621.65 287.338L641.993 279.668L642.044 279.651L643.383 279.146L643.542 279.412C643.589 279.491 643.636 279.571 643.679 279.651C645.002 282.09 646.079 284.661 646.894 287.325C648.263 291.676 649.391 296.105 650.271 300.588C650.31 300.783 650.344 300.96 650.374 301.12L650.387 301.168C650.4 301.243 650.409 301.292 650.413 301.305C650.882 303.315 650.555 305.766 649.695 308.196Z" fill="#2F2E41"/>
<path d="M650.554 294.142C650.489 293.859 650.407 293.571 650.321 293.292C649.638 291.18 648.843 289.109 647.938 287.087C646.922 284.786 645.705 282.321 644.255 279.652C643.553 278.36 642.799 277.016 641.991 275.621C641.587 274.921 641.167 274.209 640.731 273.483C640.714 273.45 640.695 273.417 640.675 273.386L640.55 273.173L620.422 275.944L612.927 276.975L612.479 280.816L612.372 281.768C612.367 281.768 612.367 281.768 612.372 281.772L612.07 284.366V284.37L611.67 287.796L611.636 287.791L600.513 286.309L589.051 284.782L582.894 283.963C581.467 283.772 580.017 283.874 578.629 284.265C577.241 284.655 575.943 285.326 574.809 286.238C573.626 287.181 572.638 288.357 571.901 289.698C571.165 291.038 570.695 292.516 570.519 294.045C570.481 294.354 570.455 294.673 570.442 294.987L564.633 309.145C561.157 317.612 558.944 326.57 558.067 335.716L553.808 349.724L554.414 349.781L563.441 350.644L565.825 350.874L571.074 342.992C571.672 342.094 572.24 341.169 572.77 340.222C573.641 338.675 574.416 337.072 575.089 335.424L586.444 307.631C587.321 307.786 588.19 307.934 589.051 308.074C593.031 308.738 596.852 309.279 600.513 309.698C612.419 311.066 622.728 311.172 631.906 310.012C634.483 309.689 636.974 309.264 639.38 308.738C640.262 308.547 641.132 308.342 641.991 308.123C642.194 308.074 642.392 308.025 642.59 307.972C644.368 307.5 646.003 306.577 647.344 305.288C648.686 303.998 649.692 302.383 650.27 300.59C650.96 298.512 651.058 296.275 650.554 294.142Z" fill="#2F2E41"/>
<path d="M556.828 365.182L550.49 362.058L549.496 361.567L547.908 365.576L536.825 368.086C536.277 368.209 535.781 368.51 535.411 368.943C535.041 369.377 534.816 369.921 534.767 370.496C534.719 371.071 534.851 371.647 535.144 372.139C535.437 372.631 535.875 373.015 536.394 373.233L547.224 377.778L550.662 374.596L549.819 378.866L553.898 380.579L558.368 365.944L556.828 365.182Z" fill="#2F2E41"/>
<path d="M595.777 359.007L596.182 360.06H595.777V359.007Z" fill="#2F2E41"/>
<path d="M593.571 360.285L586.93 362.652L585.888 363.022L587.502 367.02L581.343 376.825C581.038 377.309 580.892 377.881 580.926 378.457C580.959 379.033 581.171 379.583 581.53 380.027C581.89 380.47 582.377 380.783 582.922 380.921C583.467 381.059 584.04 381.015 584.558 380.794L595.363 376.185L595.629 371.436L597.951 375.081L602.021 373.346L595.186 359.711L593.571 360.285Z" fill="#2F2E41"/>
<path d="M648.898 300.554C648.503 300.553 648.115 300.454 647.766 300.265L612.722 281.431L612.317 279.726L611.554 274.33L611.564 274.279L614.897 258.475C614.836 258.339 614.708 258.116 614.564 257.865C613.076 255.272 608.548 247.38 617.19 236.513L632.363 218.318L645.385 217.742L645.534 217.934C649.016 222.43 651.364 227.74 652.37 233.394C653.376 239.048 653.008 244.87 651.299 250.342L649.943 275.531L651.398 280.618C652.248 283.608 652.107 286.803 650.998 289.701L651.332 297.938C651.345 298.276 651.291 298.613 651.175 298.929C651.059 299.245 650.882 299.534 650.654 299.778C650.427 300.022 650.155 300.216 649.853 300.35C649.551 300.483 649.226 300.553 648.898 300.554Z" fill="#F0FCF0"/>
<path d="M618.499 321.327C619.093 320.967 619.602 320.476 619.992 319.891C620.381 319.306 620.641 318.64 620.754 317.94C620.866 317.241 620.828 316.524 620.642 315.841C620.456 315.158 620.126 314.525 619.677 313.988L628.102 299.084L619.406 299.588L612.738 313.664C611.91 314.5 611.408 315.62 611.329 316.812C611.25 318.003 611.599 319.183 612.309 320.127C613.019 321.072 614.041 321.716 615.182 321.937C616.323 322.158 617.503 321.941 618.499 321.327Z" fill="#FFB7B7"/>
<path d="M621.899 310.37L614.113 304.133L628.261 275.933L622.96 240.022C622.698 238.247 622.819 236.434 623.314 234.713C623.81 232.991 624.668 231.403 625.828 230.061C626.987 228.719 628.42 227.656 630.024 226.947C631.627 226.239 633.363 225.902 635.108 225.961C638.259 226.072 641.239 227.463 643.393 229.83C645.548 232.198 646.702 235.348 646.601 238.589L645.292 279.478L621.899 310.37Z" fill="#F0FCF0"/>
<path d="M624.01 210.758V197.503C624.007 192.793 625.823 188.274 629.059 184.941C632.296 181.608 636.686 179.734 641.266 179.731C645.846 179.728 650.239 181.596 653.479 184.925C656.719 188.254 658.542 192.77 658.544 197.48V197.503C661.588 204.026 659.684 207.128 658.544 210.758C658.543 211.39 658.299 211.996 657.864 212.443C657.43 212.89 656.841 213.141 656.226 213.142H626.329C625.715 213.142 625.125 212.89 624.69 212.443C624.256 211.996 624.011 211.39 624.01 210.758Z" fill="#2F2E41"/>
<path d="M635.616 212.281C642.754 212.281 648.541 206.329 648.541 198.986C648.541 191.644 642.754 185.692 635.616 185.692C628.477 185.692 622.69 191.644 622.69 198.986C622.69 206.329 628.477 212.281 635.616 212.281Z" fill="#FFB7B7"/>
<path d="M649.142 202.472C649.025 202.453 648.908 202.427 648.79 202.408C646.774 202.041 644.758 201.679 642.748 201.305L642.563 196.619L640.128 200.817C634.573 202.713 629.375 201.641 624.486 199.276C622.873 198.488 621.308 197.601 619.8 196.619C620.211 194.027 621.179 191.562 622.636 189.405C624.092 187.247 625.998 185.452 628.216 184.151C628.401 184.043 628.58 183.948 628.765 183.853L628.767 183.852L628.769 183.851L628.77 183.849L628.771 183.846C629.085 183.694 629.406 183.548 629.726 183.415C632.236 182.406 634.973 182.151 637.619 182.678C640.264 183.206 642.71 184.495 644.672 186.396C648.618 190.27 650.393 196.669 649.142 202.472Z" fill="#2F2E41"/>
</svg>
